<svg width="456" height="442" viewBox="0 0 456 442" fill="none" xmlns="http://www.w3.org/2000/svg">
<path d="M226.717 139.787H210.687V158.442H226.717V139.787Z" fill="white" stroke="#263238" stroke-linecap="round" stroke-linejoin="round"/>
<path d="M245.353 139.787H229.323V158.442H245.353V139.787Z" fill="white" stroke="#263238" stroke-linecap="round" stroke-linejoin="round"/>
<path d="M263.979 139.787H247.949V158.442H263.979V139.787Z" fill="white" stroke="#263238" stroke-linecap="round" stroke-linejoin="round"/>
<path d="M226.717 139.787H210.687V146.527H226.717V139.787Z" fill="white" stroke="#263238" stroke-linecap="round" stroke-linejoin="round"/>
<path d="M245.353 139.787H229.323V146.527H245.353V139.787Z" fill="white" stroke="#263238" stroke-linecap="round" stroke-linejoin="round"/>
<path d="M263.979 139.787H247.949V146.527H263.979V139.787Z" fill="white" stroke="#263238" stroke-linecap="round" stroke-linejoin="round"/>
<path d="M248.544 208.581H232.514V227.236H248.544V208.581Z" fill="white" stroke="#263238" stroke-linecap="round" stroke-linejoin="round"/>
<path d="M267.18 208.581H251.15V227.236H267.18V208.581Z" fill="white" stroke="#263238" stroke-linecap="round" stroke-linejoin="round"/>
<path d="M285.806 208.581H269.776V227.236H285.806V208.581Z" fill="white" stroke="#263238" stroke-linecap="round" stroke-linejoin="round"/>
<path d="M248.544 208.581H232.514V215.321H248.544V208.581Z" fill="white" stroke="#263238" stroke-linecap="round" stroke-linejoin="round"/>
<path d="M267.18 208.581H251.15V215.321H267.18V208.581Z" fill="white" stroke="#263238" stroke-linecap="round" stroke-linejoin="round"/>
<path d="M285.806 208.581H269.776V215.321H285.806V208.581Z" fill="white" stroke="#263238" stroke-linecap="round" stroke-linejoin="round"/>
<path d="M295.955 139.787H279.925V158.442H295.955V139.787Z" fill="white" stroke="#263238" stroke-linecap="round" stroke-linejoin="round"/>
<path d="M314.591 139.787H298.56V158.442H314.591V139.787Z" fill="white" stroke="#263238" stroke-linecap="round" stroke-linejoin="round"/>
<path d="M333.217 139.787H317.187V158.442H333.217V139.787Z" fill="white" stroke="#263238" stroke-linecap="round" stroke-linejoin="round"/>
<path d="M295.955 139.787H279.925V146.527H295.955V139.787Z" fill="white" stroke="#263238" stroke-linecap="round" stroke-linejoin="round"/>
<path d="M314.591 139.787H298.56V146.527H314.591V139.787Z" fill="white" stroke="#263238" stroke-linecap="round" stroke-linejoin="round"/>
<path d="M333.217 139.787H317.187V146.527H333.217V139.787Z" fill="white" stroke="#263238" stroke-linecap="round" stroke-linejoin="round"/>
<path d="M366.637 139.787H350.607V158.442H366.637V139.787Z" fill="white" stroke="#263238" stroke-linecap="round" stroke-linejoin="round"/>
<path d="M385.273 139.787H369.243V158.442H385.273V139.787Z" fill="white" stroke="#263238" stroke-linecap="round" stroke-linejoin="round"/>
<path d="M403.899 139.787H387.869V158.442H403.899V139.787Z" fill="white" stroke="#263238" stroke-linecap="round" stroke-linejoin="round"/>
<path d="M366.637 139.787H350.607V146.527H366.637V139.787Z" fill="white" stroke="#263238" stroke-linecap="round" stroke-linejoin="round"/>
<path d="M385.273 139.787H369.243V146.527H385.273V139.787Z" fill="white" stroke="#263238" stroke-linecap="round" stroke-linejoin="round"/>
<path d="M403.899 139.787H387.869V146.527H403.899V139.787Z" fill="white" stroke="#263238" stroke-linecap="round" stroke-linejoin="round"/>
<path d="M395.535 190.341V174.934H389.436V190.341L384.385 198.064V228.623H400.586V198.064L395.535 190.341Z" fill="white" stroke="#263238" stroke-linecap="round" stroke-linejoin="round"/>
<path d="M395.525 174.934H389.436V182.978H395.525V174.934Z" fill="white" stroke="#263238" stroke-linecap="round" stroke-linejoin="round"/>
<path d="M396.904 205.796H384.385V218.682H396.904V205.796Z" fill="white" stroke="#263238" stroke-linecap="round" stroke-linejoin="round"/>
<path d="M374.548 190.341V174.934H368.459V190.341L363.408 198.064V228.623H379.599V198.064L374.548 190.341Z" fill="white" stroke="#263238" stroke-linecap="round" stroke-linejoin="round"/>
<path d="M374.548 174.934H368.459V182.978H374.548V174.934Z" fill="white" stroke="#263238" stroke-linecap="round" stroke-linejoin="round"/>
<path d="M375.927 205.796H363.408V218.682H375.927V205.796Z" fill="white" stroke="#263238" stroke-linecap="round" stroke-linejoin="round"/>
<path d="M224.215 190.341V174.934H218.126V190.341L213.075 198.064V228.623H229.276V198.064L224.215 190.341Z" fill="white" stroke="#263238" stroke-linecap="round" stroke-linejoin="round"/>
<path d="M224.215 174.934H218.126V182.978H224.215V174.934Z" fill="white" stroke="#263238" stroke-linecap="round" stroke-linejoin="round"/>
<path d="M225.594 205.796H213.075V218.682H225.594V205.796Z" fill="white" stroke="#263238" stroke-linecap="round" stroke-linejoin="round"/>
<path d="M203.767 159.14H410.404" stroke="#263238" stroke-width="4" stroke-linecap="round" stroke-linejoin="round"/>
<path d="M272.023 91.1204V229.35" stroke="#263238" stroke-width="4" stroke-linecap="round" stroke-linejoin="round"/>
<path d="M343.526 91.1204V229.35" stroke="#263238" stroke-width="4" stroke-linecap="round" stroke-linejoin="round"/>
<path d="M411.858 89.3172H203.465V229.473H411.858V89.3172Z" stroke="#263238" stroke-width="4" stroke-linecap="round" stroke-linejoin="round"/>
<path d="M170.914 172.574H45.4663V266.367H170.914V172.574Z" fill="white" stroke="#263238" stroke-linecap="round" stroke-linejoin="round"/>
<path d="M170.914 201.793H45.4663V206.07H170.914V201.793Z" fill="white" stroke="#263238" stroke-linecap="round" stroke-linejoin="round"/>
<path d="M50.6115 229.605C50.6115 229.605 57.1255 221.335 66.6606 221.836C76.1956 222.336 77.9894 229.86 77.9894 229.86H47.6094L50.6115 229.605Z" fill="white" stroke="#263238" stroke-linecap="round" stroke-linejoin="round"/>
<path d="M58.8815 230.606C58.8815 230.606 60.6374 221.817 66.6511 221.817" stroke="#263238" stroke-linecap="round" stroke-linejoin="round"/>
<path d="M68.1521 230.106C68.1521 230.106 68.9073 223.346 74.1752 224.347" stroke="#263238" stroke-linecap="round" stroke-linejoin="round"/>
<path d="M93.9723 229.605C93.9723 229.605 100.486 221.335 110.021 221.836C119.556 222.336 121.35 229.86 121.35 229.86H90.9607L93.9723 229.605Z" fill="white" stroke="#263238" stroke-linecap="round" stroke-linejoin="round"/>
<path d="M102.242 230.606C102.242 230.606 103.989 221.835 110.003 221.835" stroke="#263238" stroke-linecap="round" stroke-linejoin="round"/>
<path d="M111.513 230.106C111.513 230.106 112.259 223.346 117.527 224.347" stroke="#263238" stroke-linecap="round" stroke-linejoin="round"/>
<path d="M137.324 229.605C137.324 229.605 143.838 221.335 153.373 221.836C162.908 222.336 164.645 229.86 164.645 229.86H134.312L137.324 229.605Z" fill="white" stroke="#263238" stroke-linecap="round" stroke-linejoin="round"/>
<path d="M145.594 230.606C145.594 230.606 147.35 221.835 153.363 221.835" stroke="#263238" stroke-linecap="round" stroke-linejoin="round"/>
<path d="M154.864 230.106C154.864 230.106 155.62 223.346 160.878 224.347" stroke="#263238" stroke-linecap="round" stroke-linejoin="round"/>
<path d="M170.914 229.869H45.4663V234.146H170.914V229.869Z" fill="white" stroke="#263238" stroke-linecap="round" stroke-linejoin="round"/>
<path d="M170.914 172.574H45.4663V176.832H170.914V172.574Z" fill="white" stroke="#263238" stroke-linecap="round" stroke-linejoin="round"/>
<path d="M170.914 253.934H45.4663V266.358H170.914V253.934Z" fill="white" stroke="#263238" stroke-linecap="round" stroke-linejoin="round"/>
<path d="M69.4077 187H52.3673V202.038H69.4077V187Z" fill="white" stroke="#263238" stroke-linecap="round" stroke-linejoin="round"/>
<path d="M69.4077 187H52.3673V189.209H69.4077V187Z" fill="white" stroke="#263238" stroke-linecap="round" stroke-linejoin="round"/>
<path d="M137.069 187H84.6921V202.038H137.069V187Z" fill="white" stroke="#263238" stroke-linecap="round" stroke-linejoin="round"/>
<path d="M137.069 187H84.6921V189.209H137.069V187Z" fill="white" stroke="#263238" stroke-linecap="round" stroke-linejoin="round"/>
<path d="M123.286 187H109.002V202.038H123.286V187Z" fill="white" stroke="#263238" stroke-linecap="round" stroke-linejoin="round"/>
<path d="M123.286 187H109.002V189.209H123.286V187Z" fill="white" stroke="#263238" stroke-linecap="round" stroke-linejoin="round"/>
<path d="M304.64 332.433L318.065 422.978L316.337 425.574V430.124C316.337 430.124 307.841 437.677 307.671 438.621C307.554 439.41 307.554 440.211 307.671 441H332.585C332.585 441 332.585 437.535 332.367 435.581C332.15 433.627 331.499 434.071 331.716 431.682C331.933 429.294 333.019 425.187 332.802 423.025C332.585 420.863 331.282 420.854 331.065 417.172C330.847 413.49 328.232 331.828 328.232 331.828L304.64 332.433Z" fill="#263238" stroke="#263238" stroke-linecap="round" stroke-linejoin="round"/>
<path d="M356.677 332.433L343.243 422.978L344.98 425.574V430.124C344.98 430.124 353.42 437.677 353.637 438.621C353.754 439.41 353.754 440.211 353.637 441H328.733C328.733 441 328.733 437.535 328.95 435.581C329.167 433.627 329.809 434.071 329.601 431.682C329.394 429.294 328.299 425.187 328.516 423.025C328.733 420.863 330.026 420.854 330.243 417.172C330.46 413.49 333.075 331.828 333.075 331.828L356.677 332.433Z" fill="#263238" stroke="#263238" stroke-linecap="round" stroke-linejoin="round"/>
<path d="M369.526 241.293L372.5 264.299C372.5 264.299 369.356 266.943 366.382 265.461C363.408 263.979 358.603 258.512 358.273 257.682C357.942 256.851 356.781 242.586 356.781 242.586L369.526 241.293Z" fill="#B5B5B5" stroke="#263238" stroke-linecap="round" stroke-linejoin="round"/>
<path d="M369.526 241.293L356.781 242.614C356.781 242.614 356.97 244.871 357.215 247.637H370.347L369.526 241.293Z" fill="#263238" stroke="#263238" stroke-linecap="round" stroke-linejoin="round"/>
<path d="M291.112 240.962L289.129 263.289C289.129 263.289 288.468 270.729 288.468 274.203C288.468 277.677 288.544 308.019 288.544 308.019C288.544 308.019 287.383 316.289 288.214 317.46C289.044 318.63 292.509 323.247 292.509 323.247C292.509 323.247 295.983 324.238 296.484 324.408C296.984 324.578 298.466 322.426 297.635 322.086C296.827 321.81 296 321.589 295.162 321.425L292.509 315.968L294.501 310.672C294.501 310.672 295.983 317.46 295.983 318.121C295.983 318.781 296.814 320.273 297.305 318.281C297.796 316.289 297.144 314.646 297.635 312.164C298.126 309.681 297.144 307.726 296.144 305.838C295.143 303.95 294.652 303.195 294.652 303.195C294.652 303.195 300.704 269.209 301.194 267.726C301.685 266.244 303.696 241.123 303.696 241.123L291.112 240.962Z" fill="#B5B5B5" stroke="#263238" stroke-linecap="round" stroke-linejoin="round"/>
<path d="M290.526 247.637H303.158C303.47 243.861 303.687 241.123 303.687 241.123L291.112 240.962L290.526 247.637Z" fill="#263238" stroke="#263238" stroke-linecap="round" stroke-linejoin="round"/>
<path d="M356.498 243.615L376.644 242.312C376.644 242.312 368.412 211.555 368.412 210.696C368.412 209.836 343.715 190.983 343.715 190.983L342.195 190.766L330.281 192.551L318.367 190.747L316.856 190.965C316.856 190.965 292.16 209.846 292.16 210.677C292.16 211.507 283.927 242.293 283.927 242.293L304.074 243.596L302.346 267.198C302.346 267.198 299.741 283.011 300.609 292.763C301.478 302.515 300.335 335.869 300.335 335.869H360.227C360.227 335.869 359.962 301.637 359.962 292.763C359.962 282.973 357.791 267.198 357.791 267.198L356.498 243.615Z" fill="white" stroke="#263238" stroke-linecap="round" stroke-linejoin="round"/>
<path d="M350.21 196.176L349.313 195.232L347.501 193.835L351.947 216.492H309.058L312.74 194.618L310.361 196.346C310.361 196.346 305.159 215.227 304.942 217.578C304.725 219.928 304.074 243.568 304.074 243.568L302.346 267.169C302.346 267.169 299.741 282.982 300.609 292.735C301.478 302.487 300.335 335.841 300.335 335.841H360.227C360.227 335.841 359.962 301.609 359.962 292.735C359.962 282.945 357.791 267.169 357.791 267.169L356.498 243.568L357.366 219.305L350.21 196.176Z" fill="#92E3A9" stroke="#263238" stroke-linecap="round" stroke-linejoin="round"/>
<path d="M318.527 182.166C317.193 183.411 316.237 185.008 315.771 186.773C314.827 189.907 311.721 207.542 313.005 207.401C314.289 207.259 323.135 201.321 324.06 200.792C324.985 200.264 330.866 205.211 330.866 205.211C330.866 205.211 336.03 200.424 337.314 200.056C338.598 199.688 348.181 206.664 348.369 205.031C348.558 203.398 342.847 185.876 340.628 183.318C338.409 180.759 332.896 180.552 332.896 180.552C332.896 180.552 324.796 177.927 318.527 182.166Z" fill="white" stroke="#263238" stroke-linecap="round" stroke-linejoin="round"/>
<path d="M317.055 176.634C317.055 176.634 319.264 190.445 319.632 192.107C320 193.768 330.13 205.371 330.866 205.182C331.603 204.993 338.051 190.266 338.239 189.341C338.428 188.416 339.344 176.502 339.344 176.502L317.055 176.634Z" fill="#B5B5B5" stroke="#263238" stroke-linecap="round" stroke-linejoin="round"/>
<path d="M332.282 176.502L317.055 176.624C317.055 176.624 318.669 186.669 319.368 190.653L329.422 186.877L332.282 176.502Z" fill="#263238" stroke="#263238" stroke-linecap="round" stroke-linejoin="round"/>
<path d="M313.005 161.717C313.005 161.717 308.955 159.688 308.955 164.484C308.999 166.041 309.405 167.566 310.14 168.939C310.876 170.313 311.921 171.496 313.193 172.395C313.741 172.772 313.005 161.717 313.005 161.717Z" fill="#B5B5B5" stroke="#263238" stroke-linecap="round" stroke-linejoin="round"/>
<path d="M340.515 161.717C340.515 161.717 344.565 159.688 344.565 164.484C344.52 166.04 344.114 167.564 343.38 168.937C342.646 170.309 341.604 171.493 340.335 172.395C339.731 172.772 340.515 161.717 340.515 161.717Z" fill="#B5B5B5" stroke="#263238" stroke-linecap="round" stroke-linejoin="round"/>
<path d="M318.159 138.881C318.159 138.881 309.663 144.772 310.059 149.19C310.456 153.608 313.194 174.245 314.298 175.897C315.403 177.549 324.06 187.868 325.164 188.057C326.269 188.246 332.377 188.491 332.717 187.755C333.057 187.018 340.977 177.191 341.346 174.793C341.714 172.395 342.082 148.642 341.346 146.244C340.609 143.846 333.821 132.244 318.159 138.881Z" fill="#B5B5B5" stroke="#263238" stroke-linecap="round" stroke-linejoin="round"/>
<path d="M318.159 138.881C318.159 138.881 309.663 144.772 310.059 149.19C310.276 151.748 311.287 159.725 312.316 166.325C312.995 165.211 314.94 161.765 314.477 159.32C314.098 156.266 313.915 153.192 313.93 150.115C317.567 151.32 321.342 152.062 325.164 152.324C331.244 152.692 338.787 149.747 338.787 149.747C338.787 149.747 338.419 158.772 339.155 159.877C339.703 160.698 341.043 163.558 341.733 164.965C341.855 157.271 341.827 147.717 341.374 146.244C340.628 143.856 333.821 132.244 318.159 138.881Z" fill="#263238" stroke="#263238" stroke-linecap="round" stroke-linejoin="round"/>
<path d="M324.796 176.086C324.796 176.086 327.921 177.191 329.394 176.823C330.38 176.546 331.315 176.109 332.16 175.529" stroke="#263238" stroke-linecap="round" stroke-linejoin="round"/>
<path d="M323.134 178.295C324.627 179.393 326.437 179.973 328.289 179.947C330.421 179.649 332.482 178.964 334.369 177.927" stroke="#263238" stroke-linecap="round" stroke-linejoin="round"/>
<path d="M318.527 167.797C319.448 168.324 320.485 168.616 321.545 168.648C322.605 168.679 323.657 168.448 324.607 167.977" stroke="#263238" stroke-linecap="round" stroke-linejoin="round"/>
<path d="M332.16 168.005C332.16 168.005 335.662 168.741 337.682 167.061" stroke="#263238" stroke-linecap="round" stroke-linejoin="round"/>
<path d="M324.796 164.852C324.796 164.852 321.105 163.558 318.527 165.031" stroke="#263238" stroke-linecap="round" stroke-linejoin="round"/>
<path d="M332.018 165.22C332.018 165.22 335.332 163.19 337.683 165.031" stroke="#263238" stroke-linecap="round" stroke-linejoin="round"/>
<path d="M360.586 254.189C360.586 254.189 367.373 256.841 370.347 259.485C373.321 262.128 372.67 267.424 371.291 269.869C369.913 272.315 364.513 273.504 362.691 273.013C360.869 272.522 359.084 269.143 357.744 267.188C356.403 265.234 352.438 256.303 352.438 256.303L360.586 254.189Z" fill="#B5B5B5" stroke="#263238" stroke-linecap="round" stroke-linejoin="round"/>
<path d="M350.833 251.083C349.727 251.574 348.558 251.91 347.359 252.083C345.707 252.244 342.393 250.922 342.233 252.574C342.072 254.226 344.376 255.548 345.868 255.888C347.297 256.065 348.743 256.065 350.173 255.888C352.101 257.774 354.144 259.54 356.29 261.175C358.112 262.336 363.068 261.014 362.898 258.692C362.729 256.369 358.924 253.075 356.941 252.083C354.959 251.092 350.833 251.083 350.833 251.083Z" fill="#B5B5B5" stroke="#263238" stroke-linecap="round" stroke-linejoin="round"/>
<path d="M351.655 247.24C351.655 247.24 349.342 254.849 350.173 255.85C351.003 256.851 351.825 256.841 352.485 256.341C353.146 255.841 355.459 251.045 355.96 249.232C356.46 247.42 353.647 244.266 351.655 247.24Z" fill="#B5B5B5" stroke="#263238" stroke-linecap="round" stroke-linejoin="round"/>
<path d="M355.96 249.194C355.96 249.194 359.103 249.855 359.264 251.337C359.424 252.82 356.62 257.134 354.968 258.125C353.316 259.117 352.485 256.303 352.485 256.303L355.96 249.194Z" fill="#B5B5B5" stroke="#263238" stroke-linecap="round" stroke-linejoin="round"/>
<path d="M359.264 251.375C359.264 251.375 361.917 252.867 361.917 254.358C361.917 255.85 359.264 258.493 357.782 259.315C356.299 260.136 354.949 258.163 354.949 258.163L359.264 251.375Z" fill="#B5B5B5" stroke="#263238" stroke-linecap="round" stroke-linejoin="round"/>
<path d="M361.917 254.359C361.917 254.359 363.569 257.993 362.908 258.654C362.247 259.315 358.603 261.637 357.782 261.307C356.96 260.976 357.782 259.315 357.782 259.315C357.782 259.315 361.284 255.85 361.917 254.359Z" fill="#B5B5B5" stroke="#263238" stroke-linecap="round" stroke-linejoin="round"/>
<path d="M198.027 262.147H197.961C196.888 262.051 195.845 261.74 194.894 261.232C193.944 260.725 193.105 260.031 192.429 259.192C192.036 258.667 191.756 258.066 191.608 257.428C191.461 256.789 191.447 256.126 191.57 255.482C191.62 254.995 191.791 254.528 192.066 254.122C192.341 253.717 192.712 253.386 193.146 253.16C193.707 252.97 194.301 252.905 194.89 252.966C195.478 253.028 196.046 253.217 196.554 253.518C196.756 253.631 196.904 253.819 196.967 254.041C197.03 254.264 197.002 254.502 196.89 254.703C196.777 254.905 196.589 255.053 196.367 255.116C196.144 255.179 195.906 255.151 195.705 255.038C195.157 254.713 194.505 254.608 193.883 254.746C193.701 254.86 193.548 255.015 193.436 255.198C193.325 255.382 193.258 255.589 193.241 255.803C193.16 256.213 193.167 256.635 193.261 257.042C193.356 257.449 193.535 257.831 193.788 258.163C194.885 259.454 196.444 260.264 198.131 260.419C198.361 260.433 198.577 260.538 198.73 260.711C198.883 260.883 198.961 261.11 198.948 261.34C198.934 261.57 198.829 261.786 198.656 261.939C198.484 262.092 198.257 262.17 198.027 262.157V262.147Z" fill="white" stroke="#263238" stroke-linecap="round" stroke-linejoin="round"/>
<path d="M201.737 263.903C200.437 263.903 199.183 263.42 198.219 262.547C197.254 261.675 196.648 260.476 196.517 259.183L195.79 252.027H207.657L206.949 259.173C206.818 260.466 206.213 261.665 205.251 262.538C204.288 263.412 203.037 263.898 201.737 263.903Z" fill="white" stroke="#263238" stroke-linecap="round" stroke-linejoin="round"/>
<path d="M214.718 263.809H189.502L191.607 265.555H212.622L214.718 263.809Z" fill="white" stroke="#263238" stroke-linecap="round" stroke-linejoin="round"/>
<path d="M198.622 250.469C198.622 250.469 199.245 247.637 200.869 246.362C202.493 245.088 204.645 244.361 204.645 242.747" stroke="#263238" stroke-linecap="round" stroke-linejoin="round"/>
<path d="M203.106 250.469C203.106 250.469 202.606 248.855 204.994 247.731" stroke="#263238" stroke-linecap="round" stroke-linejoin="round"/>
<path d="M378.079 228.425H324.607V265.678H378.079V228.425Z" fill="white" stroke="#263238" stroke-linecap="round" stroke-linejoin="round"/>
<path d="M375.36 233.419H327.307V265.678H375.36V233.419Z" fill="white" stroke="#263238" stroke-linecap="round" stroke-linejoin="round"/>
<path d="M359.15 249.544H343.526V265.668H359.15V249.544Z" fill="white" stroke="#263238" stroke-linecap="round" stroke-linejoin="round"/>
<path d="M327.307 233.419L324.607 228.425H378.07L375.36 233.419H327.307Z" fill="white" stroke="#263238" stroke-linecap="round" stroke-linejoin="round"/>
<path d="M436.139 265.697H38.7162V440.953H436.139V265.697Z" fill="white" stroke="#263238" stroke-linecap="round" stroke-linejoin="round"/>
<path d="M436.139 265.697H38.7162V279.641H436.139V265.697Z" fill="#263238" stroke="#263238" stroke-linecap="round" stroke-linejoin="round"/>
<path d="M436.139 265.697H38.7162V274.609H436.139V265.697Z" fill="white" stroke="#263238" stroke-linecap="round" stroke-linejoin="round"/>
<path d="M11.9804 349.983C13.6514 350.71 17.758 350.615 17.758 350.615C17.758 350.615 16.8801 347.934 16.814 347.783C15.9171 345.895 13.0377 342.789 10.7531 343.063C10.3702 343.126 10.0048 343.268 9.6807 343.482C9.35657 343.695 9.08093 343.974 8.8717 344.301C8.66247 344.628 8.52432 344.995 8.46623 345.378C8.40814 345.762 8.43142 346.153 8.53454 346.528C8.91216 348.161 10.5548 349.35 11.9804 349.983Z" fill="#263238"/>
<path d="M13.4058 361.859C15.1429 362.114 18.8059 361.057 19.0702 360.972C19.6756 363.064 20.4199 365.114 21.2982 367.108C21.7986 368.279 22.3461 369.44 22.9031 370.592C22.5633 370.101 22.2612 369.648 22.214 369.648C20.8545 368.071 17.2859 365.824 15.1335 366.74C14.7806 366.901 14.4657 367.135 14.2092 367.427C13.9526 367.718 13.7602 368.06 13.6445 368.43C13.5287 368.8 13.4922 369.191 13.5373 369.576C13.5824 369.962 13.7081 370.334 13.9062 370.667C14.6992 372.112 16.6062 372.829 18.145 373.056C19.6839 373.282 22.8654 372.442 23.6773 372.206C23.9038 372.64 24.1115 373.084 24.3381 373.528C25.3955 375.642 26.4622 377.738 27.4441 379.834C27.7934 380.57 28.1049 381.307 28.3881 382.053L27.7934 381.203C26.4245 379.626 22.8559 377.379 20.7129 378.286C20.3587 378.447 20.0426 378.681 19.7851 378.973C19.5277 379.265 19.3348 379.608 19.2189 379.98C19.1031 380.351 19.067 380.743 19.1129 381.13C19.1589 381.516 19.2859 381.888 19.4856 382.223C20.2786 383.667 22.1762 384.375 23.7245 384.602C25.2727 384.828 28.1238 384.073 29.1056 383.799C29.4077 384.564 29.7098 385.329 29.9742 386.084C30.1347 386.603 30.3329 387.094 30.4651 387.623C30.5972 388.151 30.7577 388.67 30.8993 389.18C31.1354 390.181 31.3903 391.21 31.598 392.192C31.749 392.872 31.8812 393.523 32.0133 394.174C31.6829 393.438 30.9938 392.003 30.9182 391.89C29.8137 390.124 26.6227 387.368 24.357 387.944C23.9836 388.05 23.6368 388.234 23.3393 388.484C23.0417 388.733 22.8 389.043 22.6299 389.392C22.4599 389.741 22.3652 390.122 22.3521 390.51C22.3389 390.898 22.4077 391.285 22.5538 391.644C23.1203 393.193 24.8951 394.184 26.3867 394.637C27.8783 395.09 31.6546 394.684 32.1077 394.637C32.3249 395.723 32.5326 396.78 32.7025 397.781C33.099 399.99 33.3917 401.972 33.6466 403.643H35.2043C34.9305 401.916 34.5812 399.867 34.1186 397.526C33.9015 396.421 33.656 395.251 33.3822 394.042C34.4752 393.607 35.5408 393.105 36.5732 392.541C37.9865 393.745 39.559 394.749 41.2463 395.524C40.8309 396.553 40.4155 397.545 40.0001 398.479C39.1599 400.424 38.348 402.161 37.64 403.624H39.3015C39.9057 402.274 40.576 400.726 41.2841 399.017C41.7089 397.979 42.1431 396.856 42.5869 395.704C43.0211 395.798 46.618 396.525 48.2985 396.147C49.8184 395.798 51.6593 394.939 52.339 393.438C52.5112 393.09 52.6081 392.709 52.6233 392.321C52.6386 391.933 52.5719 391.546 52.4276 391.185C52.2833 390.824 52.0647 390.498 51.7859 390.227C51.5071 389.957 51.1745 389.748 50.8097 389.615C48.6006 388.869 45.2114 391.389 43.9746 393.07C43.8991 393.164 43.2288 394.325 42.8134 395.071C42.9928 394.599 43.1722 394.127 43.3421 393.655C43.7009 392.711 44.0218 391.72 44.3711 390.672C44.5316 390.162 44.6827 389.643 44.8432 389.124C45.0037 388.604 45.117 388.047 45.2586 387.509C45.5607 386.244 45.7967 384.941 46.0138 383.629C46.8635 383.941 49.875 384.989 51.4422 384.875C53.0093 384.762 54.9447 384.196 55.8415 382.817C56.0642 382.498 56.2171 382.136 56.2903 381.754C56.3635 381.372 56.3552 380.979 56.2661 380.6C56.177 380.222 56.0091 379.866 55.7733 379.557C55.5374 379.247 55.239 378.991 54.8975 378.805C52.8205 377.738 49.0915 379.749 47.6187 381.184C47.5243 381.278 46.5803 382.449 46.0799 383.072C46.2026 382.279 46.3254 381.496 46.4292 380.693C46.7124 378.371 46.9296 376.02 47.1656 373.669C47.2317 372.952 47.3072 372.234 47.3827 371.517C47.6848 371.63 51.2439 372.952 52.9904 372.829C54.5482 372.725 56.4929 372.149 57.3992 370.771C57.6219 370.452 57.7748 370.09 57.848 369.708C57.9212 369.326 57.9129 368.933 57.8238 368.554C57.7347 368.175 57.5668 367.82 57.331 367.51C57.0951 367.201 56.7967 366.945 56.4552 366.759C54.3782 365.683 50.6586 367.703 49.1764 369.138C49.0631 369.242 47.7131 370.941 47.3921 371.385C47.5526 369.808 47.7415 368.231 47.9775 366.664C48.2941 364.579 48.745 362.517 49.3275 360.49C49.4691 360.547 53.1698 361.944 54.9919 361.821C56.5496 361.708 58.4943 361.142 59.4006 359.754C59.6233 359.435 59.7762 359.073 59.8494 358.691C59.9226 358.309 59.9143 357.915 59.8253 357.537C59.7362 357.158 59.5682 356.802 59.3324 356.493C59.0965 356.184 58.7981 355.928 58.4566 355.742C56.3796 354.675 52.66 356.686 51.1778 358.121C51.0646 358.234 49.6107 360.056 49.3652 360.405C49.3652 360.292 49.4219 360.169 49.4596 360.046C50.1013 358.033 50.9195 356.081 51.9048 354.212C52.4335 353.174 52.9999 352.201 53.5758 351.276C54.2366 351.607 57.2859 353.089 58.9097 353.164C60.5335 353.24 62.4688 352.872 63.5168 351.597C63.7747 351.306 63.9682 350.964 64.0847 350.593C64.2011 350.223 64.2378 349.831 64.1923 349.445C64.1468 349.059 64.0203 348.687 63.8208 348.354C63.6214 348.02 63.3537 347.732 63.0353 347.509C61.0905 346.216 57.1727 347.774 55.5394 349.076C55.445 349.143 54.5954 349.964 54.0384 350.568C54.3027 350.153 54.567 349.718 54.8314 349.331C55.7754 347.859 56.795 346.565 57.6636 345.432C58.1734 344.8 58.6076 344.224 59.0891 343.695C59.9104 343.695 63.2147 343.582 64.6591 342.902C66.1035 342.223 67.6895 341.014 68.0294 339.39C68.1112 339.019 68.1157 338.634 68.0425 338.26C67.9693 337.887 67.82 337.532 67.604 337.219C67.3879 336.905 67.1097 336.64 66.7866 336.438C66.4635 336.237 66.1024 336.104 65.7259 336.048C63.4035 335.803 60.6374 338.984 59.7877 340.891C59.7216 341.061 58.8436 343.771 58.9097 343.771H58.9569C58.5132 344.262 58.0129 344.809 57.5597 345.404C56.6157 346.527 55.6716 347.793 54.6142 349.246C53.5084 350.809 52.4904 352.432 51.5649 354.108C50.5256 355.981 49.6567 357.943 48.9687 359.971V360.037C48.9687 359.357 48.9687 357.441 48.9687 357.29C48.7044 355.222 46.9673 351.38 44.6732 350.955C44.2892 350.895 43.8968 350.917 43.5217 351.018C43.1465 351.12 42.797 351.3 42.496 351.545C42.1949 351.791 41.949 352.098 41.7743 352.445C41.5997 352.792 41.5002 353.172 41.4823 353.561C41.3501 355.203 42.5397 356.846 43.7009 357.885C45.0131 359.055 48.6478 360.188 48.9404 360.282C48.2859 362.36 47.7718 364.48 47.4016 366.627C47.1845 367.882 46.9956 369.147 46.8257 370.403C46.8257 369.808 46.8257 369.279 46.8257 369.204C46.5519 367.136 44.8243 363.294 42.5208 362.869C42.137 362.811 41.7451 362.833 41.3706 362.936C40.9961 363.038 40.6472 363.218 40.3464 363.463C40.0457 363.709 39.7999 364.015 39.6247 364.361C39.4496 364.708 39.3492 365.087 39.3298 365.475C39.1977 367.118 40.3872 368.76 41.5484 369.799C42.7096 370.837 45.8156 371.885 46.6369 372.14C46.5708 372.631 46.5047 373.084 46.4481 373.613C46.1743 375.954 45.9005 378.333 45.5701 380.589C45.4474 381.392 45.3058 382.185 45.1642 382.968C45.1642 382.449 45.1642 382.024 45.1642 381.939C44.8904 379.862 43.1533 376.029 40.8592 375.605C40.476 375.545 40.0843 375.566 39.7098 375.667C39.3353 375.768 38.9862 375.947 38.6853 376.192C38.3844 376.437 38.1383 376.742 37.9631 377.088C37.7879 377.434 37.6874 377.813 37.6683 378.201C37.5361 379.843 38.7256 381.496 39.8868 382.534C41.048 383.573 43.8519 384.507 44.8243 384.828C44.6544 385.631 44.4844 386.443 44.2862 387.217C44.1351 387.736 44.0218 388.255 43.8425 388.774C43.6631 389.294 43.512 389.803 43.3516 390.304C43.0022 391.248 42.6435 392.267 42.2753 393.202C42.0299 393.853 41.775 394.467 41.5295 395.09C41.6522 394.288 41.8694 392.711 41.8694 392.579C41.8081 390.726 41.2682 388.921 40.3022 387.339C40.3163 387.135 40.3163 386.93 40.3022 386.726C40.2533 386.34 40.1236 385.969 39.9217 385.637C39.7198 385.305 39.4501 385.019 39.1304 384.798C38.8106 384.578 38.4479 384.426 38.0658 384.355C37.6838 384.284 37.291 384.294 36.913 384.384C34.6567 384.979 33.2217 388.944 33.1368 390.993C33.1368 391.116 33.2123 392.456 33.2784 393.306C33.1651 392.815 33.0613 392.362 32.9385 391.833C32.6931 390.832 32.4287 389.841 32.1455 388.774C31.9945 388.265 31.8434 387.745 31.6829 387.226C31.5224 386.707 31.3147 386.178 31.1354 385.649C30.6917 384.432 30.1913 383.214 29.6343 381.996C30.5123 381.788 33.5994 380.995 34.8455 380.042C36.0917 379.088 37.3945 377.54 37.3851 375.897C37.3942 375.509 37.3217 375.123 37.1724 374.765C37.0231 374.406 36.8002 374.083 36.5181 373.816C36.236 373.549 35.9011 373.344 35.5349 373.215C35.1688 373.086 34.7795 373.035 34.3924 373.065C32.07 373.311 30.0497 377.021 29.6721 379.06C29.6721 379.192 29.5021 380.693 29.4455 381.514C29.1151 380.788 28.7846 380.061 28.4259 379.334C27.3874 377.247 26.2734 375.161 25.1689 373.075L24.1682 371.186C24.4797 371.111 28.1804 370.242 29.5682 369.185C30.8049 368.241 32.1172 366.683 32.1077 365.041C32.1184 364.652 32.0469 364.265 31.8981 363.906C31.7493 363.547 31.5264 363.223 31.244 362.956C30.9616 362.689 30.6261 362.484 30.2592 362.355C29.8924 362.226 29.5025 362.176 29.1151 362.208C26.7927 362.463 24.7724 366.164 24.3947 368.203C24.3947 368.354 24.1682 370.516 24.1398 371.035C23.4129 369.619 22.6954 368.203 22.044 366.797C21.1591 364.884 20.3991 362.916 19.7688 360.906C19.9104 360.906 23.7717 359.962 25.1972 358.895C26.4339 357.951 27.7462 356.393 27.7367 354.741C27.7488 354.352 27.6784 353.965 27.5301 353.605C27.3818 353.245 27.1589 352.92 26.8762 352.653C26.5935 352.385 26.2573 352.181 25.8898 352.052C25.5223 351.924 25.1318 351.875 24.744 351.909C22.4217 352.154 20.4108 355.855 20.0237 357.903C20.0237 358.064 19.7783 360.386 19.7783 360.811C19.7783 360.698 19.6839 360.575 19.6555 360.462C19.0773 358.427 18.6824 356.345 18.4755 354.24C18.3433 353.079 18.2772 351.965 18.2489 350.87C18.9853 350.785 22.3461 350.332 23.7339 349.492C25.1217 348.652 26.5661 347.292 26.7171 345.649C26.7704 345.264 26.7418 344.873 26.6334 344.499C26.525 344.126 26.3392 343.78 26.088 343.483C25.8368 343.187 25.5259 342.946 25.1756 342.778C24.8253 342.609 24.4434 342.517 24.0549 342.506C21.7136 342.506 19.3346 345.961 18.6643 347.944C18.6643 348.047 18.3905 349.19 18.2394 350.02C18.2394 349.53 18.2394 349.02 18.2394 348.548C18.2394 346.782 18.3527 345.168 18.466 343.733C18.5321 342.921 18.6171 342.185 18.6926 341.496C19.3723 341.033 22.0723 339.126 22.9031 337.719C23.7339 336.313 24.3853 334.472 23.7717 332.933C23.6412 332.571 23.4367 332.24 23.1712 331.962C22.9057 331.683 22.5849 331.463 22.2295 331.316C21.8741 331.168 21.4919 331.096 21.1072 331.105C20.7225 331.114 20.3438 331.203 19.9954 331.366C17.9185 332.442 17.3709 336.624 17.7202 338.682C17.7202 338.862 18.5321 341.59 18.5699 341.562C18.4755 342.223 18.3905 342.931 18.3055 343.705C18.1639 345.14 18.0129 346.763 17.9751 348.538C17.9088 350.449 17.9529 352.363 18.1073 354.269C18.2802 356.404 18.6371 358.52 19.1741 360.594C19.1782 360.616 19.1782 360.638 19.1741 360.66C18.8059 360.084 17.7297 358.508 17.6258 358.394C16.2664 356.818 12.6978 354.571 10.5453 355.477C10.1922 355.64 9.87709 355.875 9.6205 356.167C9.36391 356.459 9.17153 356.801 9.05583 357.173C8.94013 357.544 8.90368 357.935 8.94885 358.321C8.99402 358.707 9.1198 359.08 9.31804 359.414C9.96001 360.924 11.8576 361.632 13.4058 361.859Z" fill="#263238"/>
<path d="M53.5192 350.88C53.5192 350.88 54.265 348.151 54.2933 347.972C54.5765 345.914 53.9157 341.751 51.8104 340.731C51.4562 340.568 51.0714 340.482 50.6815 340.479C50.2916 340.476 49.9054 340.555 49.5485 340.712C49.1916 340.869 48.8721 341.1 48.6111 341.39C48.35 341.68 48.1534 342.021 48.0342 342.393C47.4677 343.95 48.1852 345.848 48.9782 347.113C50.0072 348.689 53.5192 350.88 53.5192 350.88Z" fill="#263238"/>
<path d="M48.931 400.688H23.7434L26.2641 440.953H46.4104L48.931 400.688Z" fill="#263238"/>
<path d="M264.924 328.76H259.854V440.953H264.924V328.76Z" fill="white" stroke="#263238" stroke-linecap="round" stroke-linejoin="round"/>
<path d="M278.707 371.498H246.911V373.698H278.707V371.498Z" fill="white" stroke="#263238" stroke-linecap="round" stroke-linejoin="round"/>
<path d="M281.171 408.581H244.447V410.78H281.171V408.581Z" fill="white" stroke="#263238" stroke-linecap="round" stroke-linejoin="round"/>
<path d="M243.559 440.953H238.14L247.562 327.505H252.972L243.559 440.953Z" fill="white" stroke="#263238" stroke-linecap="round" stroke-linejoin="round"/>
<path d="M282.068 440.953H287.477L278.065 327.505H272.646L282.068 440.953Z" fill="white" stroke="#263238" stroke-linecap="round" stroke-linejoin="round"/>
<path d="M280.822 320.594H243.946V330.337H280.822V320.594Z" fill="white" stroke="#263238" stroke-linecap="round" stroke-linejoin="round"/>
<path d="M280.822 320.594H243.946V325.267H280.822V320.594Z" fill="#263238" stroke="#263238" stroke-linecap="round" stroke-linejoin="round"/>
<path d="M283.701 318.706H241.076V322.794H283.701V318.706Z" fill="white" stroke="#263238" stroke-linecap="round" stroke-linejoin="round"/>
<path d="M158.008 30.2282H57.6069V164.946H158.008V30.2282Z" fill="#263238" stroke="#263238" stroke-linecap="round" stroke-linejoin="round"/>
<path d="M69.0396 64.545H104.423" stroke="white" stroke-linecap="round" stroke-linejoin="round"/>
<path d="M69.0396 79.7916H104.423" stroke="white" stroke-linecap="round" stroke-linejoin="round"/>
<path d="M69.0396 95.0477H104.423" stroke="white" stroke-linecap="round" stroke-linejoin="round"/>
<path d="M69.0396 110.304H104.423" stroke="white" stroke-linecap="round" stroke-linejoin="round"/>
<path d="M69.0396 125.55H104.423" stroke="white" stroke-linecap="round" stroke-linejoin="round"/>
<path d="M69.0396 140.806H104.423" stroke="white" stroke-linecap="round" stroke-linejoin="round"/>
<path d="M111.825 64.545H147.208" stroke="white" stroke-linecap="round" stroke-linejoin="round"/>
<path d="M111.825 79.7916H147.208" stroke="white" stroke-linecap="round" stroke-linejoin="round"/>
<path d="M111.825 95.0477H147.208" stroke="white" stroke-linecap="round" stroke-linejoin="round"/>
<path d="M111.825 110.304H147.208" stroke="white" stroke-linecap="round" stroke-linejoin="round"/>
<path d="M111.825 125.55H147.208" stroke="white" stroke-linecap="round" stroke-linejoin="round"/>
<path d="M111.825 140.806H147.208" stroke="white" stroke-linecap="round" stroke-linejoin="round"/>
<path d="M90.8569 55.0382C90.0028 55.0803 89.1544 54.8772 88.4118 54.4529C87.8152 54.0741 87.3682 53.5003 87.1468 52.8291C86.8885 52.0501 86.764 51.2329 86.7786 50.4123V45.3994C86.7598 44.5568 86.8843 43.7173 87.1468 42.9165C87.3724 42.239 87.835 41.6658 88.4496 41.3021C89.1958 40.8888 90.0428 40.6925 90.8947 40.7357C91.7083 40.6968 92.5181 40.8692 93.2454 41.236C93.8011 41.5482 94.229 42.0463 94.4538 42.6427C94.7004 43.3231 94.8188 44.0433 94.8031 44.7668V45.928H92.0559V44.6252C92.0587 44.3096 92.0398 43.9942 91.9993 43.6812C91.9824 43.4267 91.883 43.1847 91.716 42.992C91.6093 42.8926 91.4823 42.8175 91.3438 42.7719C91.2053 42.7263 91.0585 42.7112 90.9136 42.7276C90.7652 42.7145 90.6157 42.732 90.4744 42.7791C90.3331 42.8262 90.203 42.9019 90.0922 43.0014C89.914 43.2029 89.7991 43.4525 89.7618 43.7189C89.7155 44.0314 89.6934 44.3471 89.6957 44.663V50.9977C89.6901 51.3399 89.7218 51.6818 89.7901 52.0172C89.8325 52.2741 89.9586 52.5098 90.1489 52.6875C90.3653 52.859 90.6381 52.9432 90.9136 52.9235C91.0557 52.9418 91.2001 52.9275 91.3359 52.8817C91.4716 52.8359 91.5952 52.7598 91.6972 52.6592C91.8668 52.4562 91.9691 52.2055 91.9898 51.9417C92.0363 51.6292 92.0584 51.3136 92.0559 50.9977V49.7043H94.8031V50.856C94.8154 51.5909 94.7004 52.3223 94.4633 53.0179C94.2433 53.6309 93.8246 54.1527 93.2737 54.5001C92.5363 54.9072 91.6974 55.0939 90.8569 55.0382Z" fill="white"/>
<path d="M99.5045 55.0194C98.8721 55.0355 98.2448 54.9029 97.673 54.6323C97.1845 54.3861 96.7851 53.9933 96.5307 53.5089C96.258 52.9345 96.1253 52.3036 96.1436 51.6679V48.1088C96.1253 47.4732 96.258 46.8423 96.5307 46.2679C96.7851 45.7835 97.1845 45.3907 97.673 45.1445C98.2482 44.8892 98.8705 44.7573 99.4998 44.7573C100.129 44.7573 100.751 44.8892 101.327 45.1445C101.811 45.3777 102.213 45.7532 102.478 46.2207C102.759 46.7927 102.895 47.4248 102.875 48.0616V51.6491C102.895 52.2859 102.759 52.918 102.478 53.49C102.22 53.975 101.818 54.3677 101.327 54.6134C100.759 54.8898 100.135 55.0288 99.5045 55.0194ZM99.5045 53.2634C99.5944 53.2702 99.6847 53.2577 99.7694 53.2268C99.854 53.1959 99.9311 53.1472 99.9954 53.084C100.123 52.9458 100.202 52.7704 100.222 52.5837C100.262 52.3435 100.281 52.1003 100.279 51.8568V47.9106C100.282 47.6639 100.263 47.4175 100.222 47.1742C100.198 46.9886 100.119 46.8145 99.9954 46.6738C99.9319 46.609 99.8552 46.5586 99.7705 46.526C99.6858 46.4934 99.5951 46.4794 99.5045 46.485C99.4124 46.4787 99.3201 46.4923 99.2337 46.5249C99.1474 46.5574 99.0691 46.6083 99.0042 46.6738C98.9027 46.8184 98.8438 46.9884 98.8342 47.1648C98.7936 47.4081 98.7747 47.6545 98.7776 47.9011V51.8851C98.775 52.1286 98.794 52.3718 98.8342 52.612C98.8576 52.7997 98.9403 52.975 99.0702 53.1124C99.1957 53.22 99.3584 53.2742 99.5234 53.2634H99.5045Z" fill="white"/>
<path d="M104.857 54.8494V46.6738H103.857V44.899H104.857V44.2098C104.847 43.688 104.907 43.1672 105.037 42.6616C105.143 42.245 105.402 41.8841 105.764 41.6514C106.281 41.3707 106.867 41.243 107.454 41.2832H108.096C108.303 41.2832 108.53 41.2832 108.775 41.3493V43.2374C108.676 43.208 108.575 43.1859 108.473 43.1714C108.37 43.162 108.265 43.162 108.162 43.1714C108.061 43.1635 107.96 43.179 107.867 43.2167C107.774 43.2544 107.69 43.3132 107.624 43.3885C107.493 43.5901 107.434 43.8291 107.454 44.0682V44.8612H108.775V46.6361H107.454V54.8117L104.857 54.8494ZM109.729 54.8494V46.6738H108.728V44.899H109.729V44.2098C109.718 43.688 109.779 43.1672 109.908 42.6616C110.014 42.245 110.274 41.8841 110.635 41.6514C111.152 41.3707 111.738 41.243 112.325 41.2832H112.967C113.175 41.2832 113.401 41.2832 113.647 41.3493V43.2374C113.548 43.208 113.447 43.1859 113.345 43.1714C113.241 43.162 113.137 43.162 113.033 43.1714C112.933 43.1635 112.832 43.179 112.738 43.2167C112.645 43.2544 112.562 43.3132 112.495 43.3885C112.365 43.5901 112.305 43.8291 112.325 44.0682V44.8612H113.647V46.6361H112.325V54.8117L109.729 54.8494Z" fill="white"/>
<path d="M117.867 55.0194C117.228 55.0418 116.595 54.9022 116.026 54.6134C115.526 54.3516 115.125 53.934 114.883 53.4239C114.618 52.8306 114.489 52.1854 114.506 51.5358V48.2032C114.489 47.5535 114.618 46.9084 114.883 46.3151C115.127 45.8116 115.528 45.4008 116.026 45.1444C116.589 44.8588 117.216 44.7192 117.848 44.7385C118.503 44.6996 119.157 44.8434 119.736 45.1539C120.208 45.4242 120.574 45.847 120.774 46.3528C121.011 46.9535 121.127 47.5953 121.114 48.241V49.9969H117.121V51.8851C117.113 52.1247 117.145 52.3639 117.215 52.5931C117.261 52.7466 117.353 52.882 117.48 52.9802C117.613 53.0521 117.762 53.0878 117.914 53.084C118.059 53.0867 118.202 53.0509 118.329 52.9802C118.459 52.8958 118.556 52.7691 118.603 52.6214C118.667 52.4169 118.696 52.203 118.688 51.9889V51.0448H121.095V51.8851C121.125 52.3049 121.067 52.7263 120.926 53.1228C120.784 53.5192 120.562 53.8821 120.274 54.1886C119.947 54.4785 119.566 54.7012 119.153 54.8437C118.74 54.9863 118.303 55.046 117.867 55.0194ZM117.092 48.7697H118.66V47.8256C118.667 47.5929 118.638 47.3604 118.575 47.1364C118.533 46.9787 118.436 46.8413 118.301 46.7494C118.161 46.6775 118.005 46.6418 117.848 46.6455C117.698 46.6397 117.55 46.6792 117.423 46.7588C117.3 46.8725 117.215 47.0205 117.177 47.1836C117.112 47.4619 117.083 47.7476 117.092 48.0333V48.7697Z" fill="white"/>
<path d="M125.787 55.0194C125.133 55.05 124.483 54.9101 123.899 54.6134C123.409 54.3478 123.018 53.9305 122.785 53.4239C122.515 52.832 122.386 52.1858 122.408 51.5358V48.2032C122.386 47.5531 122.515 46.907 122.785 46.3151C123.029 45.8142 123.425 45.4041 123.918 45.1444C124.485 44.8572 125.115 44.7176 125.75 44.7385C126.389 44.7083 127.026 44.8519 127.59 45.1539C128.058 45.4298 128.423 45.8508 128.629 46.3529C128.863 46.9543 128.975 47.596 128.959 48.241V49.9969H124.975V51.8851C124.968 52.1247 125 52.3639 125.07 52.5931C125.111 52.7484 125.205 52.8849 125.334 52.9802C125.464 53.0521 125.611 53.088 125.759 53.084C125.907 53.0854 126.053 53.0497 126.184 52.9802C126.311 52.8948 126.404 52.768 126.448 52.6214C126.512 52.4169 126.541 52.2031 126.533 51.9889V51.0449H128.95V51.8851C128.978 52.3055 128.918 52.7272 128.775 53.1236C128.632 53.52 128.409 53.8826 128.119 54.1886C127.48 54.7589 126.643 55.0571 125.787 55.0194ZM125.013 48.7697H126.571V47.8256C126.578 47.5929 126.549 47.3604 126.486 47.1364C126.448 46.9794 126.354 46.8418 126.222 46.7494C126.082 46.6775 125.926 46.6418 125.768 46.6455C125.618 46.6385 125.47 46.6781 125.344 46.7588C125.218 46.87 125.132 47.0192 125.098 47.1836C125.033 47.4619 125.004 47.7476 125.013 48.0333V48.7697Z" fill="white"/>
<path d="M130.262 328.76H125.193V440.953H130.262V328.76Z" fill="white" stroke="#263238" stroke-linecap="round" stroke-linejoin="round"/>
<path d="M144.055 371.498H112.259V373.698H144.055V371.498Z" fill="white" stroke="#263238" stroke-linecap="round" stroke-linejoin="round"/>
<path d="M146.519 408.581H109.795V410.78H146.519V408.581Z" fill="white" stroke="#263238" stroke-linecap="round" stroke-linejoin="round"/>
<path d="M108.898 440.953H103.488L112.91 327.505H118.32L108.898 440.953Z" fill="white" stroke="#263238" stroke-linecap="round" stroke-linejoin="round"/>
<path d="M147.416 440.953H152.825L143.404 327.505H137.994L147.416 440.953Z" fill="white" stroke="#263238" stroke-linecap="round" stroke-linejoin="round"/>
<path d="M146.17 320.594H109.294V330.337H146.17V320.594Z" fill="white" stroke="#263238" stroke-linecap="round" stroke-linejoin="round"/>
<path d="M146.17 320.594H109.294V325.267H146.17V320.594Z" fill="#263238" stroke="#263238" stroke-linecap="round" stroke-linejoin="round"/>
<path d="M149.049 318.706H106.424V322.794H149.049V318.706Z" fill="white" stroke="#263238" stroke-linecap="round" stroke-linejoin="round"/>
<path d="M170.111 413.462C170.111 413.462 162.408 419.957 163.125 420.92C163.843 421.883 171.31 432.248 173.963 434.882C176.616 437.516 184.348 441.378 185.754 439.933C187.161 438.489 181.666 427.415 180.704 425.008C179.931 422.437 179.684 419.736 179.977 417.068C180.222 416.294 170.111 413.462 170.111 413.462Z" fill="#263238" stroke="#263238" stroke-linecap="round" stroke-linejoin="round"/>
<path d="M173.963 430.766C171.263 427.528 166.939 421.194 164.938 418.201C163.739 419.447 162.861 420.552 163.125 420.901C163.852 421.845 171.31 432.23 173.963 434.864C176.616 437.498 184.348 441.359 185.754 439.914C185.866 439.747 185.944 439.559 185.983 439.361C186.022 439.164 186.021 438.96 185.981 438.763C182.677 437.224 176.653 433.995 173.963 430.766Z" fill="white" stroke="#263238" stroke-linecap="round" stroke-linejoin="round"/>
<path d="M143.876 414.16C143.876 414.16 136.172 420.655 136.889 421.618C137.607 422.581 145.074 432.947 147.727 435.581C150.38 438.215 158.112 442.086 159.519 440.641C160.925 439.197 155.421 428.123 154.458 425.716C153.683 423.142 153.439 420.438 153.741 417.767C153.977 417.049 143.876 414.16 143.876 414.16Z" fill="#263238" stroke="#263238" stroke-linecap="round" stroke-linejoin="round"/>
<path d="M147.727 431.493C145.018 428.246 140.703 421.911 138.702 418.928C137.494 420.174 136.625 421.269 136.889 421.618C137.616 422.562 145.074 432.947 147.727 435.581C150.38 438.215 158.112 442.086 159.519 440.641C159.631 440.472 159.709 440.282 159.746 440.083C159.784 439.883 159.78 439.678 159.736 439.48C156.422 437.941 150.408 434.722 147.727 431.493Z" fill="white" stroke="#263238" stroke-linecap="round" stroke-linejoin="round"/>
<path d="M146.878 282.237C146.878 282.237 169.006 300.297 169.261 302.336C169.372 304.036 169.286 305.744 169.006 307.424C169.006 307.424 190.635 348.888 191.4 354.486C192.164 360.084 197.253 420.127 197.253 420.127L190.644 419.872L191.919 425.215C191.919 425.215 180.977 429.794 169.261 426.235C157.546 422.676 139.995 414.274 139.995 414.274L151.702 371.271C151.702 371.271 141.317 370.762 140.505 368.222C139.693 365.683 109.974 309.69 109.974 309.69C109.974 309.69 119.132 279.669 121.426 278.904C123.72 278.14 146.878 282.237 146.878 282.237Z" fill="#B5B5B5" stroke="#263238" stroke-linecap="round" stroke-linejoin="round"/>
<path d="M159.764 336.936C162.275 337.181 163.408 337.181 163.408 337.181" stroke="#263238" stroke-linecap="round" stroke-linejoin="round"/>
<path d="M122.7 321.406C122.7 321.406 138.221 333.613 148.653 335.397C152.042 335.973 154.789 336.341 156.951 336.634" stroke="#263238" stroke-linecap="round" stroke-linejoin="round"/>
<path d="M157.055 318.111C157.055 318.111 179.712 356.27 179.948 357.035C180.184 357.8 190.635 417.842 190.635 417.842" stroke="#263238" stroke-linecap="round" stroke-linejoin="round"/>
<path d="M158.829 320.386L161.888 314.278" stroke="#263238" stroke-linecap="round" stroke-linejoin="round"/>
<path d="M160.293 361.802C161.944 362.428 163.684 362.791 165.447 362.879" stroke="#263238" stroke-linecap="round" stroke-linejoin="round"/>
<path d="M128.553 338.201C128.553 338.201 152.476 357.79 157.055 360.33" stroke="#263238" stroke-linecap="round" stroke-linejoin="round"/>
<path d="M151.711 371.271L160.614 379.919" stroke="#263238" stroke-linecap="round" stroke-linejoin="round"/>
<path d="M159.453 404.512C157.265 406.531 154.602 407.963 151.711 408.675" stroke="#263238" stroke-linecap="round" stroke-linejoin="round"/>
<path d="M174.86 361.349C174.86 361.349 164.428 395.949 161.643 401.548" stroke="#263238" stroke-linecap="round" stroke-linejoin="round"/>
<path d="M169.639 413.329C169.298 414.936 168.834 416.514 168.251 418.05" stroke="#263238" stroke-linecap="round" stroke-linejoin="round"/>
<path d="M175.115 379.154C175.115 379.154 172.509 399.829 170.036 411.488" stroke="#263238" stroke-linecap="round" stroke-linejoin="round"/>
<path d="M176.587 257.814L171.527 260.41L168.799 262.742L166.335 259.371L174.51 251.847L176.587 257.814Z" fill="white" stroke="#263238" stroke-linecap="round" stroke-linejoin="round"/>
<path d="M178.268 239.263L166.212 257.682L173.604 257.04L185.537 239.914L178.268 239.263Z" fill="#263238" stroke="#263238" stroke-linecap="round" stroke-linejoin="round"/>
<path d="M183.46 248.732C183.46 248.732 178.145 247.438 177.626 248.6C177.107 249.761 178.013 250.29 179.306 250.941C180.6 251.592 182.422 252.102 183.328 250.677C184.234 249.251 183.46 248.732 183.46 248.732Z" fill="white" stroke="#263238" stroke-linecap="round" stroke-linejoin="round"/>
<path d="M180.864 252.027C180.864 252.027 174.898 250.856 174.51 251.894C174.123 252.933 170.876 257.474 171.678 257.993C172.481 258.512 177.343 258.937 178.287 257.861C179.231 256.785 180.864 252.027 180.864 252.027Z" fill="white" stroke="#263238" stroke-linecap="round" stroke-linejoin="round"/>
<path d="M154.402 265.074L166.212 257.682L171.14 263.912L145.329 287.646L144.546 271.172L154.402 265.074Z" fill="#263238" stroke="#263238" stroke-linecap="round" stroke-linejoin="round"/>
<path d="M145.452 244.71C145.452 244.71 147.397 259.759 147.661 265.725C147.925 271.692 148.435 285.701 148.435 285.701L157.782 284.144C157.782 284.144 156.611 266.376 154.666 257.162C153.562 251.775 151.683 246.575 149.087 241.727L145.452 244.71Z" fill="#92E3A9" stroke="#263238" stroke-linecap="round" stroke-linejoin="round"/>
<path d="M144.414 242.633C146.358 253.485 147.619 264.448 148.19 275.458C148.964 292.574 142.865 313.334 142.865 313.334C142.865 313.334 136.125 316.959 120.944 310.87C112.128 307.368 103.588 303.205 95.3978 298.418C95.3978 298.418 97.0783 262.223 102.95 248.732C108.822 235.241 111.768 229.02 117.734 227.33C123.701 225.64 144.414 242.633 144.414 242.633Z" fill="#263238" stroke="#263238" stroke-linecap="round" stroke-linejoin="round"/>
<path d="M128.855 235.893L131.876 254.859L101.884 250.856C101.884 250.856 90.8852 293.905 90.753 299.003C90.6208 304.101 97.3615 311.059 110.729 315.213C124.097 319.367 129.016 321.821 133.387 318.196C137.758 314.571 143.252 269.813 142.828 265.14C142.403 260.467 142.186 258.399 142.186 258.399L133.623 254.764L130.508 236.827L128.855 235.893Z" fill="white" stroke="#263238" stroke-linecap="round" stroke-linejoin="round"/>
<path d="M120.548 216.955C120.548 216.955 113.675 219.551 113.543 223.44C113.411 227.33 116.79 230.832 117.951 231.352C119.113 231.871 137.022 241.595 138.966 242.114C140.911 242.633 149.087 239.527 149.087 236.931C149.087 234.335 128.978 218.38 126.646 216.435C124.314 214.491 120.548 216.955 120.548 216.955Z" fill="#92E3A9" stroke="#263238" stroke-linecap="round" stroke-linejoin="round"/>
<path d="M128.1 209.43C128.1 209.43 123.04 207.354 121.614 209.685C120.189 212.017 119.537 215.916 120.576 216.955C121.614 217.993 134.454 238.744 138.995 242.114C143.536 245.484 144.574 246.532 146.783 244.946C148.992 243.36 152.098 240.792 153.524 237.394C154.949 233.995 157.026 233.504 153.788 229.086C150.55 224.668 149.889 224.422 149.889 224.422L128.1 209.43Z" fill="#92E3A9" stroke="#263238" stroke-linecap="round" stroke-linejoin="round"/>
<path d="M163.097 209.685C163.097 209.685 160.888 214.491 159.981 215.529C159.075 216.568 157.649 216.568 157.649 217.606C157.649 218.645 158.424 222.789 157.517 223.44C156.611 224.092 152.589 224.611 152.589 224.611C152.589 224.611 148.955 230.058 147.397 230.578C145.839 231.097 141.95 228.755 139.099 227.075C136.247 225.395 132.094 219.032 129.884 215.529C127.675 212.027 127.553 209.95 128.072 209.43C128.591 208.911 127.553 201.774 138.834 199.829C150.116 197.885 157.13 200.094 159.075 202.426C161.02 204.757 163.097 209.685 163.097 209.685Z" fill="white" stroke="#263238" stroke-linecap="round" stroke-linejoin="round"/>
<path d="M154.43 217.096C153.986 217.852 153.382 218.324 153.08 218.144C152.778 217.965 152.891 217.2 153.335 216.454C153.779 215.709 154.383 215.227 154.685 215.406C154.987 215.586 154.874 216.332 154.43 217.096Z" fill="#263238"/>
<path d="M157.102 215.067C157.102 215.067 154.987 213.688 153.326 214.538" stroke="#263238" stroke-linecap="round" stroke-linejoin="round"/>
<path d="M150.531 224.592C149.861 224.239 149.289 223.725 148.864 223.098C148.439 222.471 148.175 221.749 148.095 220.995" stroke="#263238" stroke-linecap="round" stroke-linejoin="round"/>
<path d="M132.613 182.968C132.613 182.968 126.514 188.416 125.74 196.072C124.966 203.728 127.156 208.137 128.1 209.431C129.044 210.724 131.083 210.205 132.773 208.911C134.463 207.618 137.437 204.502 140.326 204.635C143.215 204.767 145.122 204.635 145.122 204.635C143.77 207.902 142.026 210.993 139.929 213.839C138.811 215.346 137.546 216.737 136.153 217.993C136.153 217.993 143.545 212.027 146.009 210.082C148.473 208.137 149.899 203.983 149.899 203.983V206.815L155.478 209.279L158.31 205.003L157.149 210.186C157.149 210.186 158.31 210.45 159.868 210.969C161.747 211.385 163.657 211.644 165.58 211.743C165.58 211.743 167.269 203.313 167.269 197.998C167.269 192.683 160.113 184.054 152.07 181.411C144.027 178.767 135.983 179.985 132.613 182.968Z" fill="#263238" stroke="#263238" stroke-linecap="round" stroke-linejoin="round"/>
<path d="M132.613 182.968C129.931 180.769 126.705 179.334 123.276 178.814C117.697 178.04 113.543 183.535 112.249 186.99C111.462 188.831 111.28 190.874 111.73 192.824L121.718 195.94C121.718 195.94 123.399 186.603 126.514 184.913C128.193 183.918 130.169 183.55 132.094 183.875L132.613 182.968Z" fill="#263238" stroke="#263238" stroke-linecap="round" stroke-linejoin="round"/>
<path d="M139.618 207.741C139.618 207.741 138.324 201.519 134.69 201.906C131.055 202.293 131.706 212.414 133 213.235C134.293 214.056 136.776 212.98 136.776 212.98" fill="white"/>
<path d="M139.618 207.741C139.618 207.741 138.324 201.519 134.69 201.906C131.055 202.293 131.706 212.414 133 213.235C134.293 214.056 136.776 212.98 136.776 212.98" stroke="#263238" stroke-linecap="round" stroke-linejoin="round"/>
<path d="M156.866 255.737C156.866 255.737 159.594 251.46 159.981 250.554C160.368 249.648 162.19 238.744 163.097 237.837C164.003 236.931 169.318 235.373 171.263 234.722C173.208 234.071 176.323 233.296 176.455 233.948C176.587 234.599 173.736 235.628 172.301 236.667C170.866 237.705 168.799 241.859 167.76 244.842C166.722 247.826 166.599 251.073 165.174 252.499C163.748 253.924 159.726 258.984 159.726 258.984L156.866 255.737Z" fill="white" stroke="#263238" stroke-linecap="round" stroke-linejoin="round"/>
<path d="M108.483 248.25C108.483 248.25 120.548 287.901 122.37 288.165C124.192 288.43 160.765 261.184 160.765 261.184L157.366 253.792L133.765 262.61C133.765 262.61 129.743 239.263 128.44 237.705C127.137 236.148 118.584 230.832 112.75 236.667" fill="#263238"/>
<path d="M108.483 248.25C108.483 248.25 120.548 287.901 122.37 288.165C124.192 288.43 160.765 261.184 160.765 261.184L157.366 253.792L133.765 262.61C133.765 262.61 129.743 239.263 128.44 237.705C127.137 236.148 118.584 230.832 112.75 236.667" stroke="#263238" stroke-linecap="round" stroke-linejoin="round"/>
<path d="M181.09 45.0028L174.784 35.987H150.097L143.781 45.0028C140.435 49.7751 138.719 55.5004 138.889 61.3265C139.059 67.1527 141.106 72.7681 144.725 77.337L147.642 81.0283H177.191L180.118 77.337C183.743 72.7719 185.796 67.1578 185.971 61.3313C186.146 55.5048 184.434 49.7775 181.09 45.0028Z" fill="white" stroke="#263238" stroke-linecap="round" stroke-linejoin="round"/>
<path d="M143.781 45.0028H155.384" stroke="#263238" stroke-linecap="round" stroke-linejoin="round"/>
<path d="M168.204 48.6941H158.433" stroke="#263238" stroke-linecap="round" stroke-linejoin="round"/>
<path d="M185.603 65.7911H162.71" stroke="#263238" stroke-linecap="round" stroke-linejoin="round"/>
<path d="M143.781 65.489H152.636" stroke="#263238" stroke-linecap="round" stroke-linejoin="round"/>
<path d="M174.312 60.9103H167.288" stroke="#263238" stroke-linecap="round" stroke-linejoin="round"/>
<path d="M152.938 72.2013H159.047" stroke="#263238" stroke-linecap="round" stroke-linejoin="round"/>
<path d="M176.144 38.9231H170.951" stroke="#263238" stroke-linecap="round" stroke-linejoin="round"/>
<path d="M162.436 35.9493V1" stroke="#263238" stroke-linecap="round" stroke-linejoin="round"/>
<path d="M256.077 45.0028L249.771 35.987H225.084L218.73 45.0028C215.384 49.7751 213.668 55.5004 213.838 61.3265C214.008 67.1527 216.055 72.7681 219.674 77.337L222.591 81.0283H252.122L255.048 77.337C258.68 72.7774 260.742 67.1669 260.928 61.3406C261.113 55.5144 259.412 49.7841 256.077 45.0028Z" fill="white" stroke="#263238" stroke-linecap="round" stroke-linejoin="round"/>
<path d="M218.768 45.0028H230.371" stroke="#263238" stroke-linecap="round" stroke-linejoin="round"/>
<path d="M243.191 48.6941H233.42" stroke="#263238" stroke-linecap="round" stroke-linejoin="round"/>
<path d="M260.59 65.7911H237.697" stroke="#263238" stroke-linecap="round" stroke-linejoin="round"/>
<path d="M218.768 65.489H227.623" stroke="#263238" stroke-linecap="round" stroke-linejoin="round"/>
<path d="M249.299 60.9103H242.275" stroke="#263238" stroke-linecap="round" stroke-linejoin="round"/>
<path d="M227.926 72.2013H234.034" stroke="#263238" stroke-linecap="round" stroke-linejoin="round"/>
<path d="M251.131 38.9231H245.938" stroke="#263238" stroke-linecap="round" stroke-linejoin="round"/>
<path d="M237.423 35.9493V1" stroke="#263238" stroke-linecap="round" stroke-linejoin="round"/>
<path d="M331.074 45.0028L324.768 35.987H300.071L293.755 45.0028C290.409 49.7751 288.693 55.5004 288.863 61.3265C289.033 67.1527 291.08 72.7681 294.699 77.337L297.616 81.0283H327.147L330.13 77.3748C333.758 72.8026 335.81 67.1798 335.98 61.3456C336.15 55.5115 334.429 49.7786 331.074 45.0028Z" fill="white" stroke="#263238" stroke-linecap="round" stroke-linejoin="round"/>
<path d="M293.755 45.0028H305.358" stroke="#263238" stroke-linecap="round" stroke-linejoin="round"/>
<path d="M318.178 48.6941H308.407" stroke="#263238" stroke-linecap="round" stroke-linejoin="round"/>
<path d="M335.577 65.7911H312.684" stroke="#263238" stroke-linecap="round" stroke-linejoin="round"/>
<path d="M293.755 65.489H302.61" stroke="#263238" stroke-linecap="round" stroke-linejoin="round"/>
<path d="M324.277 60.9103H317.262" stroke="#263238" stroke-linecap="round" stroke-linejoin="round"/>
<path d="M302.912 72.2013H309.021" stroke="#263238" stroke-linecap="round" stroke-linejoin="round"/>
<path d="M326.118 38.9231H320.925" stroke="#263238" stroke-linecap="round" stroke-linejoin="round"/>
<path d="M312.41 35.9493V1" stroke="#263238" stroke-linecap="round" stroke-linejoin="round"/>
<path d="M0.00012207 440.953H455.502" stroke="#263238" stroke-miterlimit="10"/>
</svg>
