<svg width="72" height="24" viewBox="0 0 72 24" fill="none" xmlns="http://www.w3.org/2000/svg">
<path d="M0.501539 19V5.60923H3.72615V19H0.501539ZM0.501539 4.10769V0.661537H3.72615V4.10769H0.501539ZM6.70346 19V5.60923H9.73115V8.24308L9.485 7.77538C9.7968 6.97128 10.3055 6.3641 11.0112 5.95385C11.7332 5.52718 12.5701 5.31384 13.5219 5.31384C14.5065 5.31384 15.3763 5.52718 16.1312 5.95385C16.9024 6.38051 17.5014 6.97949 17.9281 7.75077C18.3547 8.50564 18.5681 9.38359 18.5681 10.3846V19H15.3435V11.1477C15.3435 10.5569 15.2286 10.0482 14.9988 9.62154C14.7691 9.19487 14.4491 8.86667 14.0388 8.63692C13.645 8.39077 13.1773 8.26769 12.6358 8.26769C12.1106 8.26769 11.6429 8.39077 11.2327 8.63692C10.8224 8.86667 10.5024 9.19487 10.2727 9.62154C10.0429 10.0482 9.92808 10.5569 9.92808 11.1477V19H6.70346ZM26.3902 19.2954C24.9625 19.2954 23.7153 18.959 22.6487 18.2862C21.5984 17.5969 20.8763 16.6697 20.4825 15.5046L22.8948 14.3477C23.2394 15.1026 23.7153 15.6933 24.3225 16.12C24.9461 16.5467 25.6353 16.76 26.3902 16.76C26.981 16.76 27.4487 16.6287 27.7933 16.3662C28.1379 16.1036 28.3102 15.759 28.3102 15.3323C28.3102 15.0697 28.2363 14.8564 28.0887 14.6923C27.9574 14.5118 27.7687 14.3641 27.5225 14.2492C27.2928 14.1179 27.0384 14.0113 26.7594 13.9292L24.5687 13.3138C23.4363 12.9856 22.5748 12.4851 21.984 11.8123C21.4097 11.1395 21.1225 10.3436 21.1225 9.42461C21.1225 8.6041 21.3276 7.89026 21.7379 7.28308C22.1646 6.65949 22.7471 6.17538 23.4856 5.83077C24.2404 5.48615 25.102 5.31384 26.0702 5.31384C27.3338 5.31384 28.4497 5.61743 29.4179 6.22461C30.3861 6.83179 31.0753 7.68513 31.4856 8.78461L29.024 9.94154C28.7943 9.33436 28.4087 8.85026 27.8671 8.48923C27.3256 8.1282 26.7184 7.94769 26.0456 7.94769C25.504 7.94769 25.0774 8.07077 24.7656 8.31692C24.4538 8.56308 24.2979 8.88308 24.2979 9.27692C24.2979 9.52308 24.3635 9.73641 24.4948 9.91692C24.6261 10.0974 24.8066 10.2451 25.0363 10.36C25.2825 10.4749 25.5615 10.5815 25.8733 10.68L28.0148 11.32C29.1143 11.6482 29.9594 12.1405 30.5502 12.7969C31.1574 13.4533 31.461 14.2574 31.461 15.2092C31.461 16.0133 31.2476 16.7272 30.821 17.3508C30.3943 17.9579 29.8035 18.4338 29.0487 18.7785C28.2938 19.1231 27.4076 19.2954 26.3902 19.2954ZM33.939 23.9231V5.60923H36.9667V8.26769L36.6713 7.60308C37.1308 6.88102 37.7544 6.32308 38.5421 5.92923C39.3298 5.51897 40.2406 5.31384 41.2744 5.31384C42.538 5.31384 43.6785 5.62564 44.696 6.24923C45.7134 6.87282 46.5175 7.70974 47.1083 8.76C47.7154 9.81026 48.019 10.9918 48.019 12.3046C48.019 13.601 47.7237 14.7826 47.1329 15.8492C46.5421 16.9159 45.738 17.761 44.7206 18.3846C43.7031 18.9918 42.5462 19.2954 41.2498 19.2954C40.2816 19.2954 39.3872 19.1067 38.5667 18.7292C37.7626 18.3354 37.1226 17.7774 36.6467 17.0554L37.1637 16.4154V23.9231H33.939ZM40.8806 16.3415C41.619 16.3415 42.2754 16.1692 42.8498 15.8246C43.4242 15.48 43.8672 15.0041 44.179 14.3969C44.5072 13.7897 44.6713 13.0923 44.6713 12.3046C44.6713 11.5169 44.5072 10.8277 44.179 10.2369C43.8672 9.62974 43.4242 9.15385 42.8498 8.80923C42.2754 8.4482 41.619 8.26769 40.8806 8.26769C40.1749 8.26769 39.5349 8.44 38.9606 8.78461C38.4026 9.12923 37.9596 9.61333 37.6313 10.2369C37.3196 10.8441 37.1637 11.5333 37.1637 12.3046C37.1637 13.0923 37.3196 13.7897 37.6313 14.3969C37.9596 15.0041 38.4026 15.48 38.9606 15.8246C39.5349 16.1692 40.1749 16.3415 40.8806 16.3415ZM57.0252 19.2954C55.7124 19.2954 54.5144 18.9918 53.4313 18.3846C52.3647 17.7774 51.5113 16.9487 50.8713 15.8985C50.2478 14.8482 49.936 13.6503 49.936 12.3046C49.936 10.959 50.2478 9.76103 50.8713 8.71077C51.5113 7.66051 52.3647 6.83179 53.4313 6.22461C54.498 5.61743 55.696 5.31384 57.0252 5.31384C58.338 5.31384 59.5278 5.61743 60.5944 6.22461C61.6611 6.83179 62.5062 7.66051 63.1298 8.71077C63.7698 9.74461 64.0898 10.9426 64.0898 12.3046C64.0898 13.6503 63.7698 14.8482 63.1298 15.8985C62.4898 16.9487 61.6365 17.7774 60.5698 18.3846C59.5031 18.9918 58.3216 19.2954 57.0252 19.2954ZM57.0252 16.3415C57.7472 16.3415 58.379 16.1692 58.9206 15.8246C59.4785 15.48 59.9134 15.0041 60.2252 14.3969C60.5534 13.7733 60.7175 13.0759 60.7175 12.3046C60.7175 11.5169 60.5534 10.8277 60.2252 10.2369C59.9134 9.62974 59.4785 9.15385 58.9206 8.80923C58.379 8.4482 57.7472 8.26769 57.0252 8.26769C56.2867 8.26769 55.6385 8.4482 55.0806 8.80923C54.5226 9.15385 54.0796 9.62974 53.7513 10.2369C53.4396 10.8277 53.2837 11.5169 53.2837 12.3046C53.2837 13.0759 53.4396 13.7733 53.7513 14.3969C54.0796 15.0041 54.5226 15.48 55.0806 15.8246C55.6385 16.1692 56.2867 16.3415 57.0252 16.3415ZM68.0613 19V15.5538H71.3106V19H68.0613Z" fill="#21C4A4"/>
</svg>
