<svg width="215" height="32" viewBox="0 0 215 32" fill="none" xmlns="http://www.w3.org/2000/svg">
<path d="M12.9573 23.1453L12 22.6667M12 22.6667L4 26.6667V9.33333L12 5.33333M12 22.6667V5.33333M12 5.33333L20 9.33333M20 9.33333L28 5.33333V15.3333M20 9.33333V14.6667M23.7333 27.756L20.8373 29.2733C20.7514 29.3181 20.6547 29.338 20.5581 29.331C20.4615 29.324 20.3687 29.2902 20.2901 29.2335C20.2116 29.1768 20.1503 29.0994 20.1132 29.0099C20.0761 28.9204 20.0646 28.8223 20.08 28.7267L20.6333 25.512L18.2907 23.236C18.2207 23.1684 18.1712 23.0825 18.1478 22.9881C18.1243 22.8937 18.1279 22.7947 18.1581 22.7022C18.1883 22.6097 18.2438 22.5276 18.3184 22.4652C18.393 22.4028 18.4837 22.3627 18.58 22.3493L21.8173 21.88L23.2653 18.956C23.3086 18.8689 23.3754 18.7956 23.4581 18.7444C23.5407 18.6932 23.6361 18.666 23.7333 18.666C23.8306 18.666 23.9259 18.6932 24.0086 18.7444C24.0913 18.7956 24.158 18.8689 24.2013 18.956L25.6493 21.88L28.8867 22.3493C28.9827 22.3631 29.073 22.4036 29.1473 22.466C29.2215 22.5285 29.2769 22.6105 29.307 22.7027C29.3371 22.795 29.3408 22.8938 29.3176 22.9881C29.2945 23.0823 29.2454 23.1682 29.176 23.236L26.8333 25.512L27.3853 28.7253C27.4019 28.8212 27.3913 28.9197 27.3546 29.0098C27.318 29.0999 27.2569 29.1779 27.1781 29.2349C27.0994 29.292 27.0062 29.3259 26.9092 29.3326C26.8122 29.3394 26.7152 29.3189 26.6293 29.2733L23.7333 27.756Z" stroke="#21C4A4" stroke-width="2" stroke-linecap="round" stroke-linejoin="round"/>
<path d="M57.2061 26.7954C55.9097 26.7954 54.7036 26.5574 53.5877 26.0815C52.4882 25.6056 51.5282 24.9492 50.7077 24.1123C49.9036 23.259 49.2718 22.2579 48.8123 21.1092C48.3528 19.9605 48.1231 18.6969 48.1231 17.3185C48.1231 15.9564 48.3446 14.701 48.7877 13.5523C49.2472 12.3872 49.8872 11.3862 50.7077 10.5492C51.5282 9.6959 52.4882 9.03949 53.5877 8.58C54.6872 8.1041 55.8933 7.86615 57.2061 7.86615C58.5026 7.86615 59.6595 8.08769 60.6769 8.53077C61.7108 8.97385 62.5805 9.55641 63.2861 10.2785C63.9918 10.9841 64.5005 11.7554 64.8123 12.5923L62.2031 13.8231C61.8092 12.8385 61.1774 12.0426 60.3077 11.4354C59.4544 10.8118 58.4205 10.5 57.2061 10.5C55.9918 10.5 54.9169 10.7872 53.9815 11.3615C53.0461 11.9359 52.3159 12.7318 51.7908 13.7492C51.282 14.7667 51.0277 15.9564 51.0277 17.3185C51.0277 18.6805 51.282 19.8785 51.7908 20.9123C52.3159 21.9297 53.0461 22.7256 53.9815 23.3C54.9169 23.8579 55.9918 24.1369 57.2061 24.1369C58.4205 24.1369 59.4544 23.8333 60.3077 23.2262C61.1774 22.619 61.8092 21.8231 62.2031 20.8385L64.8123 22.0692C64.5005 22.8897 63.9918 23.661 63.2861 24.3831C62.5805 25.1051 61.7108 25.6877 60.6769 26.1308C59.6595 26.5738 58.5026 26.7954 57.2061 26.7954ZM73.7127 26.7954C72.4327 26.7954 71.2594 26.4918 70.1927 25.8846C69.1424 25.2774 68.3055 24.4487 67.6819 23.3985C67.0583 22.3482 66.7465 21.1585 66.7465 19.8292C66.7465 18.4836 67.0583 17.2938 67.6819 16.26C68.3055 15.2097 69.1424 14.3892 70.1927 13.7985C71.2429 13.1913 72.4163 12.8877 73.7127 12.8877C75.0255 12.8877 76.1988 13.1913 77.2327 13.7985C78.2829 14.3892 79.1117 15.2097 79.7188 16.26C80.3424 17.2938 80.6542 18.4836 80.6542 19.8292C80.6542 21.1749 80.3424 22.3728 79.7188 23.4231C79.0953 24.4733 78.2583 25.3021 77.2081 25.9092C76.1578 26.5 74.9927 26.7954 73.7127 26.7954ZM73.7127 24.2108C74.5004 24.2108 75.1978 24.0221 75.805 23.6446C76.4122 23.2672 76.8881 22.7503 77.2327 22.0938C77.5937 21.421 77.7742 20.6662 77.7742 19.8292C77.7742 18.9923 77.5937 18.2456 77.2327 17.5892C76.8881 16.9328 76.4122 16.4159 75.805 16.0385C75.1978 15.661 74.5004 15.4723 73.7127 15.4723C72.9414 15.4723 72.244 15.661 71.6204 16.0385C71.0132 16.4159 70.5291 16.9328 70.1681 17.5892C69.8235 18.2456 69.6512 18.9923 69.6512 19.8292C69.6512 20.6662 69.8235 21.421 70.1681 22.0938C70.5291 22.7503 71.0132 23.2672 71.6204 23.6446C72.244 24.0221 72.9414 24.2108 73.7127 24.2108ZM84.5108 26.5V15.6938H82.0492V13.1831H84.5108V12.4938C84.5108 11.4928 84.7159 10.6559 85.1262 9.98308C85.5364 9.29384 86.1026 8.76872 86.8246 8.40769C87.5631 8.04667 88.4082 7.86615 89.36 7.86615C89.5405 7.86615 89.7456 7.88256 89.9754 7.91538C90.2051 7.93179 90.3938 7.95641 90.5415 7.98923V10.4015C90.4103 10.3687 90.2626 10.3523 90.0985 10.3523C89.9344 10.3359 89.8031 10.3277 89.7046 10.3277C88.9662 10.3277 88.3754 10.5 87.9323 10.8446C87.4892 11.1728 87.2677 11.7226 87.2677 12.4938V13.1831H93.6431V15.6938H87.2677V26.5H84.5108ZM94.1354 26.5V15.6938H91.6985V13.1831H94.1354V12.4938C94.1354 11.4928 94.3405 10.6559 94.7508 9.98308C95.1774 9.29384 95.7518 8.76872 96.4738 8.40769C97.2123 8.04667 98.0492 7.86615 98.9846 7.86615C99.1815 7.86615 99.3949 7.88256 99.6246 7.91538C99.8544 7.93179 100.043 7.95641 100.191 7.98923V10.4015C100.043 10.3687 99.8872 10.3523 99.7231 10.3523C99.5754 10.3359 99.4441 10.3277 99.3292 10.3277C98.5908 10.3277 98 10.5 97.5569 10.8446C97.1303 11.1728 96.9169 11.7226 96.9169 12.4938V13.1831H99.9692V15.6938H96.9169V26.5H94.1354ZM108.276 26.7954C106.947 26.7954 105.765 26.4918 104.731 25.8846C103.714 25.261 102.918 24.4241 102.344 23.3738C101.769 22.3072 101.482 21.1174 101.482 19.8046C101.482 18.459 101.769 17.2692 102.344 16.2354C102.934 15.2015 103.722 14.3892 104.707 13.7985C105.691 13.1913 106.807 12.8877 108.054 12.8877C109.055 12.8877 109.95 13.06 110.737 13.4046C111.525 13.7492 112.19 14.2251 112.731 14.8323C113.273 15.4231 113.683 16.1041 113.962 16.8754C114.257 17.6467 114.405 18.4672 114.405 19.3369C114.405 19.5503 114.397 19.7718 114.381 20.0015C114.364 20.2313 114.331 20.4446 114.282 20.6415H103.673V18.4262H112.707L111.377 19.4354C111.542 18.6313 111.484 17.9174 111.205 17.2938C110.943 16.6538 110.532 16.1533 109.974 15.7923C109.433 15.4149 108.793 15.2262 108.054 15.2262C107.316 15.2262 106.66 15.4149 106.085 15.7923C105.511 16.1533 105.068 16.6785 104.756 17.3677C104.444 18.0405 104.321 18.861 104.387 19.8292C104.305 20.7318 104.428 21.5195 104.756 22.1923C105.101 22.8651 105.576 23.3903 106.184 23.7677C106.807 24.1451 107.513 24.3338 108.301 24.3338C109.105 24.3338 109.786 24.1533 110.344 23.7923C110.918 23.4313 111.369 22.9636 111.697 22.3892L113.962 23.4969C113.7 24.1205 113.289 24.6867 112.731 25.1954C112.19 25.6877 111.533 26.0815 110.762 26.3769C110.007 26.6559 109.179 26.7954 108.276 26.7954ZM123.372 26.7954C122.043 26.7954 120.861 26.4918 119.828 25.8846C118.81 25.261 118.014 24.4241 117.44 23.3738C116.865 22.3072 116.578 21.1174 116.578 19.8046C116.578 18.459 116.865 17.2692 117.44 16.2354C118.031 15.2015 118.818 14.3892 119.803 13.7985C120.788 13.1913 121.903 12.8877 123.151 12.8877C124.152 12.8877 125.046 13.06 125.834 13.4046C126.621 13.7492 127.286 14.2251 127.828 14.8323C128.369 15.4231 128.779 16.1041 129.058 16.8754C129.354 17.6467 129.501 18.4672 129.501 19.3369C129.501 19.5503 129.493 19.7718 129.477 20.0015C129.46 20.2313 129.428 20.4446 129.378 20.6415H118.769V18.4262H127.803L126.474 19.4354C126.638 18.6313 126.58 17.9174 126.301 17.2938C126.039 16.6538 125.629 16.1533 125.071 15.7923C124.529 15.4149 123.889 15.2262 123.151 15.2262C122.412 15.2262 121.756 15.4149 121.181 15.7923C120.607 16.1533 120.164 16.6785 119.852 17.3677C119.54 18.0405 119.417 18.861 119.483 19.8292C119.401 20.7318 119.524 21.5195 119.852 22.1923C120.197 22.8651 120.673 23.3903 121.28 23.7677C121.903 24.1451 122.609 24.3338 123.397 24.3338C124.201 24.3338 124.882 24.1533 125.44 23.7923C126.014 23.4313 126.465 22.9636 126.794 22.3892L129.058 23.4969C128.796 24.1205 128.385 24.6867 127.828 25.1954C127.286 25.6877 126.63 26.0815 125.858 26.3769C125.103 26.6559 124.275 26.7954 123.372 26.7954ZM132.487 26.5V8.16154H139.158C140.388 8.16154 141.471 8.39128 142.407 8.85077C143.342 9.29384 144.072 9.95025 144.598 10.82C145.139 11.6733 145.41 12.699 145.41 13.8969C145.41 15.1605 145.09 16.2436 144.45 17.1462C143.826 18.0487 142.981 18.7051 141.914 19.1154L146.148 26.5H142.85L138.345 18.5L140.241 19.6077H135.391V26.5H132.487ZM135.391 17.0231H139.207C139.88 17.0231 140.462 16.8918 140.954 16.6292C141.447 16.3667 141.824 16.0056 142.087 15.5462C142.366 15.0703 142.505 14.5123 142.505 13.8723C142.505 13.2323 142.366 12.6826 142.087 12.2231C141.824 11.7472 141.447 11.3862 140.954 11.14C140.462 10.8774 139.88 10.7462 139.207 10.7462H135.391V17.0231ZM154.001 26.7954C152.721 26.7954 151.548 26.4918 150.481 25.8846C149.431 25.2774 148.594 24.4487 147.97 23.3985C147.347 22.3482 147.035 21.1585 147.035 19.8292C147.035 18.4836 147.347 17.2938 147.97 16.26C148.594 15.2097 149.431 14.3892 150.481 13.7985C151.531 13.1913 152.705 12.8877 154.001 12.8877C155.314 12.8877 156.487 13.1913 157.521 13.7985C158.571 14.3892 159.4 15.2097 160.007 16.26C160.631 17.2938 160.943 18.4836 160.943 19.8292C160.943 21.1749 160.631 22.3728 160.007 23.4231C159.384 24.4733 158.547 25.3021 157.497 25.9092C156.446 26.5 155.281 26.7954 154.001 26.7954ZM154.001 24.2108C154.789 24.2108 155.486 24.0221 156.093 23.6446C156.701 23.2672 157.177 22.7503 157.521 22.0938C157.882 21.421 158.063 20.6662 158.063 19.8292C158.063 18.9923 157.882 18.2456 157.521 17.5892C157.177 16.9328 156.701 16.4159 156.093 16.0385C155.486 15.661 154.789 15.4723 154.001 15.4723C153.23 15.4723 152.532 15.661 151.909 16.0385C151.302 16.4159 150.818 16.9328 150.457 17.5892C150.112 18.2456 149.94 18.9923 149.94 19.8292C149.94 20.6662 150.112 21.421 150.457 22.0938C150.818 22.7503 151.302 23.2672 151.909 23.6446C152.532 24.0221 153.23 24.2108 154.001 24.2108ZM168.409 26.7954C167.408 26.7954 166.53 26.5738 165.775 26.1308C165.02 25.6713 164.43 25.0395 164.003 24.2354C163.593 23.4149 163.387 22.4713 163.387 21.4046V13.1831H166.169V21.1585C166.169 21.7656 166.292 22.299 166.538 22.7585C166.784 23.2179 167.129 23.579 167.572 23.8415C168.015 24.0877 168.524 24.2108 169.098 24.2108C169.689 24.2108 170.206 24.0795 170.649 23.8169C171.092 23.5544 171.437 23.1851 171.683 22.7092C171.945 22.2333 172.077 21.6754 172.077 21.0354V13.1831H174.834V26.5H172.2V23.8908L172.495 24.2354C172.183 25.0559 171.666 25.6877 170.944 26.1308C170.222 26.5738 169.377 26.7954 168.409 26.7954ZM183.841 26.6477C182.446 26.6477 181.363 26.2538 180.592 25.4662C179.821 24.6785 179.435 23.5708 179.435 22.1431V15.6938H177.097V13.1831H177.466C178.09 13.1831 178.574 13.0026 178.918 12.6415C179.263 12.2805 179.435 11.7882 179.435 11.1646V10.1308H182.217V13.1831H185.244V15.6938H182.217V22.02C182.217 22.4795 182.291 22.8733 182.438 23.2015C182.586 23.5133 182.824 23.7595 183.152 23.94C183.48 24.1041 183.907 24.1862 184.432 24.1862C184.563 24.1862 184.711 24.1779 184.875 24.1615C185.039 24.1451 185.195 24.1287 185.343 24.1123V26.5C185.113 26.5328 184.859 26.5656 184.58 26.5985C184.301 26.6313 184.055 26.6477 183.841 26.6477ZM194.069 26.7954C192.74 26.7954 191.558 26.4918 190.525 25.8846C189.507 25.261 188.711 24.4241 188.137 23.3738C187.563 22.3072 187.275 21.1174 187.275 19.8046C187.275 18.459 187.563 17.2692 188.137 16.2354C188.728 15.2015 189.515 14.3892 190.5 13.7985C191.485 13.1913 192.601 12.8877 193.848 12.8877C194.849 12.8877 195.743 13.06 196.531 13.4046C197.318 13.7492 197.983 14.2251 198.525 14.8323C199.066 15.4231 199.476 16.1041 199.755 16.8754C200.051 17.6467 200.198 18.4672 200.198 19.3369C200.198 19.5503 200.19 19.7718 200.174 20.0015C200.157 20.2313 200.125 20.4446 200.075 20.6415H189.466V18.4262H198.5L197.171 19.4354C197.335 18.6313 197.277 17.9174 196.998 17.2938C196.736 16.6538 196.326 16.1533 195.768 15.7923C195.226 15.4149 194.586 15.2262 193.848 15.2262C193.109 15.2262 192.453 15.4149 191.878 15.7923C191.304 16.1533 190.861 16.6785 190.549 17.3677C190.237 18.0405 190.114 18.861 190.18 19.8292C190.098 20.7318 190.221 21.5195 190.549 22.1923C190.894 22.8651 191.37 23.3903 191.977 23.7677C192.601 24.1451 193.306 24.3338 194.094 24.3338C194.898 24.3338 195.579 24.1533 196.137 23.7923C196.711 23.4313 197.163 22.9636 197.491 22.3892L199.755 23.4969C199.493 24.1205 199.083 24.6867 198.525 25.1954C197.983 25.6877 197.327 26.0815 196.555 26.3769C195.801 26.6559 194.972 26.7954 194.069 26.7954ZM207.836 26.7954C206.474 26.7954 205.276 26.459 204.242 25.7862C203.225 25.1133 202.511 24.2108 202.101 23.0785L204.242 22.0692C204.603 22.8241 205.096 23.4231 205.719 23.8662C206.359 24.3092 207.065 24.5308 207.836 24.5308C208.493 24.5308 209.026 24.3831 209.436 24.0877C209.846 23.7923 210.052 23.3903 210.052 22.8815C210.052 22.5533 209.961 22.2908 209.781 22.0938C209.6 21.8805 209.371 21.7082 209.092 21.5769C208.829 21.4456 208.558 21.3472 208.279 21.2815L206.187 20.6908C205.038 20.3626 204.177 19.8703 203.602 19.2138C203.044 18.541 202.765 17.7615 202.765 16.8754C202.765 16.0713 202.971 15.3738 203.381 14.7831C203.791 14.1759 204.357 13.7082 205.079 13.38C205.801 13.0518 206.614 12.8877 207.516 12.8877C208.731 12.8877 209.814 13.1913 210.765 13.7985C211.717 14.3892 212.39 15.2179 212.784 16.2846L210.642 17.2938C210.38 16.6538 209.961 16.1451 209.387 15.7677C208.829 15.3903 208.197 15.2015 207.492 15.2015C206.884 15.2015 206.4 15.3492 206.039 15.6446C205.678 15.9236 205.498 16.2928 205.498 16.7523C205.498 17.0641 205.58 17.3267 205.744 17.54C205.908 17.7369 206.121 17.901 206.384 18.0323C206.646 18.1472 206.917 18.2456 207.196 18.3277L209.362 18.9677C210.462 19.2795 211.307 19.7718 211.898 20.4446C212.488 21.101 212.784 21.8887 212.784 22.8077C212.784 23.5954 212.571 24.2928 212.144 24.9C211.734 25.4908 211.159 25.9585 210.421 26.3031C209.682 26.6313 208.821 26.7954 207.836 26.7954Z" fill="#21C4A4"/>
</svg>
