<svg width="24" height="24" viewBox="0 0 24 24" fill="none" xmlns="http://www.w3.org/2000/svg">
<path fill-rule="evenodd" clip-rule="evenodd" d="M4.36902 1.60001H4.2921C3.93982 1.60001 3.63676 1.60001 3.36909 1.66308C2.95472 1.76209 2.57585 1.97389 2.27446 2.27501C1.97306 2.57613 1.76092 2.95482 1.66153 3.3691C1.6 3.63677 1.6 3.93829 1.6 4.29211V8.13796C1.6 8.49025 1.6 8.7933 1.66307 9.06097C1.76209 9.47534 1.97389 9.85422 2.27501 10.1556C2.57613 10.457 2.95481 10.6691 3.36909 10.7685C3.63676 10.8301 3.93828 10.8301 4.2921 10.8301H8.13796C8.49024 10.8301 8.79329 10.8301 9.06096 10.767C9.47534 10.668 9.85421 10.4562 10.1556 10.1551C10.457 9.85394 10.6691 9.47526 10.7685 9.06097C10.8301 8.7933 10.8301 8.49178 10.8301 8.13796V4.29211C10.8301 3.93983 10.8301 3.63677 10.767 3.3691C10.668 2.95473 10.4562 2.57585 10.155 2.27446C9.85393 1.97307 9.47525 1.76093 9.06096 1.66154C8.79329 1.60001 8.49178 1.60001 8.13796 1.60001H4.36902ZM3.72753 3.15989C3.79368 3.1445 3.89674 3.13835 4.36902 3.13835H8.06104C8.53485 3.13835 8.63638 3.14296 8.70253 3.15989C8.84072 3.19293 8.96705 3.26361 9.06752 3.36408C9.16799 3.46455 9.23867 3.59088 9.27171 3.72907C9.2871 3.79368 9.29171 3.89521 9.29171 4.36902V8.06105C9.29171 8.53486 9.2871 8.63639 9.27018 8.70254C9.23713 8.84073 9.16645 8.96706 9.06598 9.06753C8.96551 9.168 8.83918 9.23868 8.70099 9.27172C8.63792 9.28557 8.53639 9.29172 8.06104 9.29172H4.36902C3.89521 9.29172 3.79368 9.28711 3.72753 9.27018C3.58934 9.23714 3.463 9.16646 3.36253 9.06599C3.26206 8.96552 3.19139 8.83919 3.15834 8.701C3.14449 8.63793 3.13834 8.5364 3.13834 8.06105V4.36902C3.13834 3.89521 3.14296 3.79368 3.15988 3.72753C3.19292 3.58935 3.2636 3.46301 3.36407 3.36254C3.46454 3.26207 3.59088 3.19139 3.72907 3.15835L3.72753 3.15989ZM15.1374 1.60001H15.0605C14.7082 1.60001 14.4052 1.60001 14.1375 1.66308C13.7231 1.76209 13.3442 1.97389 13.0429 2.27501C12.7415 2.57613 12.5293 2.95482 12.4299 3.3691C12.3684 3.63677 12.3684 3.93829 12.3684 4.29211V8.13796C12.3684 8.49025 12.3684 8.7933 12.4315 9.06097C12.5305 9.47534 12.7423 9.85422 13.0434 10.1556C13.3445 10.457 13.7232 10.6691 14.1375 10.7685C14.4052 10.8301 14.7067 10.8301 15.0605 10.8301H18.9064C19.2586 10.8301 19.5617 10.8301 19.8294 10.767C20.2437 10.668 20.6226 10.4562 20.924 10.1551C21.2254 9.85394 21.4375 9.47526 21.5369 9.06097C21.5985 8.7933 21.5985 8.49178 21.5985 8.13796V4.29211C21.5985 3.93983 21.5985 3.63677 21.5354 3.3691C21.4364 2.95473 21.2246 2.57585 20.9234 2.27446C20.6223 1.97307 20.2436 1.76093 19.8294 1.66154C19.5617 1.60001 19.2602 1.60001 18.9064 1.60001H15.1374ZM14.4959 3.15989C14.5621 3.1445 14.6651 3.13835 15.1374 3.13835H18.8294C19.3032 3.13835 19.4048 3.14296 19.4709 3.15989C19.6091 3.19293 19.7355 3.26361 19.8359 3.36408C19.9364 3.46455 20.0071 3.59088 20.0401 3.72907C20.0555 3.79368 20.0601 3.89521 20.0601 4.36902V8.06105C20.0601 8.53486 20.054 8.63639 20.0386 8.70254C20.0055 8.84073 19.9349 8.96706 19.8344 9.06753C19.7339 9.168 19.6076 9.23868 19.4694 9.27172C19.4048 9.28711 19.3032 9.29172 18.8294 9.29172H15.1374C14.6636 9.29172 14.5621 9.28711 14.4959 9.27018C14.3577 9.23714 14.2314 9.16646 14.1309 9.06599C14.0305 8.96552 13.9598 8.83919 13.9267 8.701C13.9129 8.63793 13.9067 8.5364 13.9067 8.06105V4.36902C13.9067 3.89521 13.9114 3.79368 13.9283 3.72753C13.9613 3.58935 14.032 3.46301 14.1325 3.36254C14.2329 3.26207 14.3593 3.19139 14.4975 3.15835L14.4959 3.15989ZM4.2921 12.3684H8.13796C8.49024 12.3684 8.79329 12.3684 9.06096 12.4315C9.47534 12.5305 9.85421 12.7423 10.1556 13.0434C10.457 13.3445 10.6691 13.7232 10.7685 14.1375C10.8301 14.4052 10.8301 14.7067 10.8301 15.0605V18.9064C10.8301 19.2586 10.8301 19.5617 10.767 19.8294C10.668 20.2437 10.4562 20.6226 10.155 20.924C9.85393 21.2254 9.47525 21.4375 9.06096 21.5369C8.79329 21.5985 8.49178 21.5985 8.13796 21.5985H4.2921C3.93982 21.5985 3.63676 21.5985 3.36909 21.5354C2.95472 21.4364 2.57585 21.2246 2.27446 20.9235C1.97306 20.6223 1.76092 20.2437 1.66153 19.8294C1.6 19.5617 1.6 19.2602 1.6 18.9064V15.0605C1.6 14.7082 1.6 14.4052 1.66307 14.1375C1.76209 13.7231 1.97389 13.3443 2.27501 13.0429C2.57613 12.7415 2.95481 12.5293 3.36909 12.4299C3.63676 12.3684 3.93828 12.3684 4.2921 12.3684ZM4.36902 13.9068C3.89521 13.9068 3.79368 13.9114 3.72753 13.9283C3.58934 13.9613 3.463 14.032 3.36253 14.1325C3.26206 14.233 3.19139 14.3593 3.15834 14.4975C3.14449 14.5605 3.13834 14.6621 3.13834 15.1374V18.8294C3.13834 19.3033 3.14296 19.4048 3.15988 19.4709C3.19292 19.6091 3.2636 19.7355 3.36407 19.8359C3.46454 19.9364 3.59088 20.0071 3.72907 20.0401C3.79368 20.0555 3.89521 20.0601 4.36902 20.0601H8.06104C8.53485 20.0601 8.63638 20.054 8.70253 20.0386C8.84072 20.0055 8.96705 19.9349 9.06752 19.8344C9.16799 19.7339 9.23867 19.6076 9.27171 19.4694C9.2871 19.4048 9.29171 19.3033 9.29171 18.8294V15.1374C9.29171 14.6636 9.2871 14.5621 9.27018 14.4959C9.23713 14.3577 9.16645 14.2314 9.06598 14.1309C8.96551 14.0305 8.83918 13.9598 8.70099 13.9267C8.63792 13.9129 8.53639 13.9068 8.06104 13.9068H4.36902ZM15.1374 12.3684H15.0605C14.7082 12.3684 14.4052 12.3684 14.1375 12.4315C13.7231 12.5305 13.3442 12.7423 13.0429 13.0434C12.7415 13.3445 12.5293 13.7232 12.4299 14.1375C12.3684 14.4052 12.3684 14.7067 12.3684 15.0605V18.9064C12.3684 19.2586 12.3684 19.5617 12.4315 19.8294C12.5305 20.2437 12.7423 20.6226 13.0434 20.924C13.3445 21.2254 13.7232 21.4375 14.1375 21.5369C14.4052 21.6 14.7082 21.6 15.0605 21.6H18.9064C19.2586 21.6 19.5617 21.6 19.8294 21.5369C20.2435 21.4377 20.622 21.2258 20.9231 20.9247C21.2242 20.6236 21.4361 20.245 21.5354 19.8309C21.5985 19.5632 21.5985 19.2602 21.5985 18.9079V15.0605C21.5985 14.7082 21.5985 14.4052 21.5354 14.1375C21.4364 13.7231 21.2246 13.3443 20.9234 13.0429C20.6223 12.7415 20.2436 12.5293 19.8294 12.4299C19.5617 12.3684 19.2602 12.3684 18.9064 12.3684H15.1374ZM14.4959 13.9283C14.5621 13.9129 14.6651 13.9068 15.1374 13.9068H18.8294C19.3032 13.9068 19.4048 13.9114 19.4709 13.9283C19.6091 13.9613 19.7355 14.032 19.8359 14.1325C19.9364 14.233 20.0071 14.3593 20.0401 14.4975C20.0555 14.5621 20.0601 14.6636 20.0601 15.1374V18.8294C20.0601 19.3033 20.054 19.4048 20.0386 19.4709C20.0055 19.6091 19.9349 19.7355 19.8344 19.8359C19.7339 19.9364 19.6076 20.0071 19.4694 20.0401C19.4048 20.0555 19.3032 20.0601 18.8294 20.0601H15.1374C14.6636 20.0601 14.5621 20.054 14.4959 20.0386C14.3577 20.0055 14.2314 19.9349 14.1309 19.8344C14.0305 19.7339 13.9598 19.6076 13.9267 19.4694C13.9129 19.4063 13.9067 19.3048 13.9067 18.8294V15.1374C13.9067 14.6636 13.9114 14.5621 13.9283 14.4959C13.9613 14.3577 14.032 14.2314 14.1325 14.1309C14.2329 14.0305 14.3593 13.9598 14.4975 13.9267L14.4959 13.9283Z" fill="#15A78A"/>
</svg>
